<svg width="45" height="46" viewBox="0 0 45 46" fill="none" xmlns="http://www.w3.org/2000/svg">
<g clip-path="url(#clip0_30_1927)">
<g filter="url(#filter0_d_30_1927)">
<path d="M29.2085 29.2223V24.3127L29.0479 24.3039C28.8887 25.6857 28.6965 27.0644 28.584 28.4506C28.5318 29.09 28.3246 29.3796 27.7165 29.4913C24.2396 30.1339 20.6853 30.1304 17.2094 29.481C16.6398 29.3752 16.4106 29.1415 16.3625 28.5079C16.2548 27.0914 16.0594 25.684 15.7778 24.2951V29.1782C14.9419 28.9254 14.2309 28.7225 13.5254 28.4962C11.5873 27.8744 11.5928 27.87 11.586 25.715C11.586 23.9276 11.5283 22.1402 12.1281 20.4233C13.196 17.3678 15.1634 15.2957 18.0302 14.207C18.228 14.1207 18.4429 14.0889 18.6551 14.1146C18.8673 14.1403 19.0701 14.2226 19.245 14.354C21.3656 15.7416 23.5247 15.7592 25.659 14.3819C25.8442 14.2466 26.0569 14.1605 26.2794 14.1308C26.5019 14.1012 26.7277 14.1288 26.9383 14.2114C30.5248 15.427 33.2041 19.193 33.3482 23.3147C33.3935 24.6376 33.3661 25.9605 33.3482 27.2835C33.3482 27.4746 33.2645 27.7921 33.1478 27.8347C31.885 28.308 30.6072 28.7402 29.2085 29.2223Z" fill="#F56210"/>
</g>
<g filter="url(#filter1_d_30_1927)">
<path d="M29.0547 14.4288C29.4761 14.1877 29.8782 13.9511 30.279 13.7291C31.0051 13.3293 31.6447 13.2881 32.4408 13.7703C34.0687 14.7566 35.7886 14.6669 37.4013 13.6424C37.6082 13.4972 37.8452 13.4087 38.0914 13.3846C38.3377 13.3605 38.5857 13.4016 38.8137 13.5042C41.7579 14.6052 43.9746 17.8008 44.0721 21.1478C44.105 22.2738 44.094 23.4013 44.0721 24.5287C44.0721 24.7271 43.9458 25.0461 43.8072 25.099C42.786 25.4974 41.7483 25.8428 40.583 26.2485V22.2503L40.4087 22.2385C40.2618 23.4409 40.1341 24.6463 39.9516 25.8428C39.9186 26.0604 39.6771 26.3882 39.511 26.4117C37.7019 26.6454 35.8874 26.8277 33.9397 27.0393C33.9397 26.5601 33.9493 26.2794 33.9397 25.9986C33.8779 24.5831 33.9397 23.147 33.7201 21.7579C33.2548 18.7857 31.723 16.4955 29.3978 14.8169C29.3045 14.7492 29.2139 14.6699 29.1233 14.6008C29.1096 14.5802 29.1055 14.5508 29.0547 14.4288Z" fill="#F56210"/>
</g>
<g filter="url(#filter2_d_30_1927)">
<path d="M4.38563 22.293V26.3515C3.23129 25.9502 2.18951 25.5989 1.16694 25.2152C1.09145 25.1752 1.02616 25.1162 0.976666 25.0432C0.927176 24.9703 0.894971 24.8855 0.882812 24.7963C0.952814 23.0162 0.833397 21.1847 1.18889 19.4678C1.80107 16.5118 3.67601 14.592 6.31685 13.5322C6.72863 13.3632 7.0704 13.4381 7.46296 13.691C9.1677 14.7861 10.9493 14.8669 12.6637 13.7865C13.2937 13.3896 13.8015 13.4043 14.3808 13.6865C14.8708 13.9232 15.3416 14.2069 15.9414 14.5376C11.5683 17.4995 10.6199 21.9005 11.0907 27.0761C9.65908 26.9762 8.34552 26.9159 7.04295 26.7822C6.3896 26.716 5.55782 26.7322 5.15839 26.3206C4.79329 25.9443 4.89898 25.0418 4.80427 24.37C4.70956 23.6982 4.61623 22.9809 4.52289 22.2856L4.38563 22.293Z" fill="#F56210"/>
</g>
<g filter="url(#filter3_d_30_1927)">
<path d="M22.5062 14.523C21.8137 14.5271 21.1274 14.3843 20.4867 14.103C19.846 13.8217 19.2637 13.4073 18.7732 12.8839C18.2827 12.3604 17.8939 11.7381 17.629 11.053C17.3641 10.3678 17.2285 9.63324 17.23 8.89168C17.23 5.81658 19.6183 3.23392 22.4458 3.25155C23.8445 3.25582 25.1848 3.85286 26.1737 4.91219C27.1626 5.97152 27.7197 7.40699 27.7234 8.90491C27.7219 10.3891 27.1727 11.8125 26.1954 12.8649C25.2182 13.9173 23.8921 14.5133 22.5062 14.523Z" fill="#F56210"/>
</g>
<g filter="url(#filter4_d_30_1927)">
<path d="M34.8182 13.6646C34.2285 13.6746 33.6428 13.5582 33.0957 13.3223C32.5486 13.0864 32.0511 12.7357 31.6324 12.2909C31.2137 11.8461 30.8823 11.3161 30.6577 10.732C30.433 10.148 30.3197 9.52183 30.3244 8.89024C30.3167 7.6276 30.7772 6.41331 31.6049 5.51402C32.4325 4.61473 33.5596 4.10395 34.7386 4.09385C35.3279 4.08393 35.9132 4.19921 36.4606 4.43303C37.0081 4.66684 37.5068 5.01456 37.928 5.45606C38.3492 5.89756 38.6845 6.4241 38.9145 7.00523C39.1445 7.58636 39.2647 8.21056 39.2681 8.84173C39.2783 9.47327 39.1706 10.1006 38.9513 10.687C38.732 11.2733 38.4054 11.8068 37.9909 12.2561C37.5763 12.7054 37.0821 13.0614 36.5373 13.3033C35.9925 13.5452 35.408 13.668 34.8182 13.6646Z" fill="#F56210"/>
</g>
<g filter="url(#filter5_d_30_1927)">
<path d="M14.6331 8.95946C14.64 9.59242 14.5293 10.2205 14.3074 10.8072C14.0855 11.3939 13.7568 11.9275 13.3405 12.3768C12.9242 12.8262 12.4286 13.1824 11.8826 13.4247C11.3365 13.667 10.7509 13.7906 10.1599 13.7882C8.98052 13.7894 7.84833 13.2925 7.00904 12.4052C6.16975 11.518 5.6911 10.312 5.67701 9.04913C5.66625 8.41728 5.77319 7.78947 5.9916 7.2024C6.21001 6.61532 6.5355 6.08075 6.94904 5.62994C7.36258 5.17913 7.85588 4.82112 8.40011 4.57683C8.94434 4.33254 9.52857 4.20687 10.1187 4.20717C10.7086 4.19343 11.295 4.30634 11.8435 4.53926C12.392 4.77218 12.8913 5.12039 13.3121 5.56334C13.7329 6.00628 14.0665 6.53499 14.2934 7.11828C14.5203 7.70156 14.6358 8.3276 14.6331 8.95946Z" fill="#F56210"/>
</g>
<g filter="url(#filter6_d_30_1927)">
<path d="M25.865 42.7455C24.9248 42.0106 23.9695 41.3065 23.0513 40.5406C22.6395 40.2011 22.3334 40.1805 21.9148 40.5274C20.9801 41.31 19.9974 42.0245 18.9733 42.6661C19.1449 42.0591 19.3096 41.4505 19.4894 40.8464C19.6747 40.2172 19.8532 39.5837 20.0741 38.9678C20.2306 38.5268 20.1565 38.2652 19.7818 37.9962C18.9665 37.4082 18.1855 36.7717 17.3907 36.1514C17.1854 36.0046 17.0205 35.8016 16.9131 35.5634C18.0661 35.5634 19.219 35.5311 20.3706 35.5767C20.9196 35.5987 21.1777 35.4385 21.3314 34.8417C21.6402 33.6437 22.0383 32.4722 22.4707 31.0596C22.8948 32.4207 23.3093 33.5585 23.5921 34.7344C23.7609 35.4311 24.0642 35.6031 24.6901 35.5723C25.8262 35.5155 26.9647 35.5646 28.0927 35.7193C27.3735 36.2866 26.6584 36.8614 25.9337 37.42C24.7052 38.3695 24.6984 38.3651 25.1678 39.9041C25.4423 40.8057 25.7168 41.7073 25.9913 42.6088L25.865 42.7455Z" fill="#F56210"/>
</g>
<g filter="url(#filter7_d_30_1927)">
<path d="M29.9332 39.9736C30.2901 38.7976 30.566 37.8304 30.8831 36.8749C31.0299 36.434 30.9503 36.1752 30.5756 35.9077C29.7747 35.3379 29.0252 34.6893 28.3369 33.9704H30.5976C31.7588 33.9704 31.7588 33.9704 32.1239 32.7679C32.3357 32.0032 32.6089 31.2596 32.9405 30.5454C33.2288 31.4744 33.5527 32.3946 33.7929 33.3383C33.9302 33.8777 34.1951 34.0056 34.6741 33.9865C35.5981 33.9429 36.5238 33.9896 37.4399 34.1262C37.061 34.429 36.6808 34.7274 36.3034 35.0331C35.7955 35.4462 35.0282 35.7681 34.8567 36.3046C34.6851 36.8411 35.1216 37.5849 35.2973 38.2376C35.4345 38.7447 35.5814 39.2503 35.779 39.9544C34.9033 39.2797 34.1553 38.7653 33.4786 38.1611C33.0147 37.7466 32.688 37.7981 32.2433 38.1758C31.5584 38.7609 30.8199 39.2886 29.9332 39.9736Z" fill="#F56210"/>
</g>
<g filter="url(#filter8_d_30_1927)">
<path d="M16.6535 34.1316C15.9054 34.7196 15.1711 35.3164 14.4052 35.8676C14.0181 36.1469 13.9097 36.4218 14.0744 36.8966C14.408 37.8557 14.6701 38.8417 14.8581 39.8452C14.1156 39.272 13.3483 38.7252 12.64 38.1107C12.2283 37.7579 11.9414 37.7403 11.5228 38.1107C10.8227 38.7237 10.0623 39.2573 9.16193 39.9511C9.42958 39.0265 9.62861 38.3092 9.84822 37.5992C10.3396 35.9911 10.4425 36.4688 9.2031 35.4604C8.67603 35.0312 8.13935 34.6167 7.60954 34.1934C7.57934 34.1684 7.57385 34.111 7.51758 33.9685C8.50309 33.9685 9.4488 33.9508 10.4 33.9773C10.8022 33.989 11.0122 33.8685 11.1316 33.4275C11.3961 32.4319 11.7381 31.4617 12.1541 30.5273C12.4451 31.4681 12.7677 32.4 13.0148 33.3555C13.152 33.8611 13.384 33.9949 13.8383 33.9773C14.762 33.9435 15.6872 33.9685 16.6109 33.9685L16.6535 34.1316Z" fill="#F56210"/>
</g>
<g filter="url(#filter9_d_30_1927)">
<path d="M38.1042 32.0504C38.7822 32.0504 39.4616 32.0313 40.1397 32.0504C40.5254 32.0666 40.7134 31.9196 40.826 31.5168C41.0195 30.7922 41.2652 30.0822 41.5438 29.1914C41.7827 29.9763 42.0037 30.5937 42.156 31.2317C42.3029 31.8417 42.5774 32.1254 43.2033 32.0563C43.807 31.9941 44.4162 32.0438 45.0041 32.2033C44.5594 32.559 44.1449 32.978 43.6617 33.2587C43.0194 33.6306 42.9466 34.076 43.2239 34.7463C43.4504 35.2946 43.578 35.8899 43.8127 36.6778C43.0729 36.1221 42.4964 35.7091 41.9474 35.249C41.6372 34.9829 41.4189 35.0006 41.117 35.2593C40.5691 35.7381 39.9701 36.1457 39.3326 36.4734C39.5303 35.8193 39.7018 35.1505 39.9338 34.514C40.1081 34.0275 40.045 33.7114 39.6099 33.4233C39.0718 33.0661 38.5763 32.6325 38.063 32.2312L38.1042 32.0504Z" fill="#F56210"/>
</g>
<g filter="url(#filter10_d_30_1927)">
<path d="M1.20766 36.5354C1.42178 35.8195 1.67021 35.111 1.82806 34.3804C1.84483 34.2426 1.83245 34.1024 1.79182 33.9704C1.75119 33.8383 1.68336 33.7177 1.59335 33.6175C1.08412 33.1427 0.514506 32.7444 0.00390625 32.1476C0.651763 32.1476 1.29962 32.1211 1.94473 32.1564C2.38945 32.1814 2.6022 32.0094 2.72161 31.5508C2.90965 30.8276 3.15535 30.1206 3.41614 29.2842C3.68379 30.1367 3.93634 30.8673 4.13674 31.614C4.2438 32.0124 4.42773 32.1697 4.81479 32.155C5.51321 32.1165 6.21343 32.1658 6.90111 32.3019C6.39326 32.6959 5.90462 33.1251 5.37206 33.4779C4.91362 33.7792 4.83401 34.1085 5.03303 34.6303C5.27816 35.2725 5.44248 35.9467 5.52167 36.6353C5.13872 36.3413 4.75303 36.0562 4.37282 35.7607C3.41202 35.011 3.41202 35.011 2.43474 35.7798C2.06964 36.0738 1.69904 36.3457 1.33668 36.628L1.20766 36.5354Z" fill="#F56210"/>
</g>
</g>
<defs>
<filter id="filter0_d_30_1927" x="-2.41553" y="4.10596" width="49.7886" height="43.8647" filterUnits="userSpaceOnUse" color-interpolation-filters="sRGB">
<feFlood flood-opacity="0" result="BackgroundImageFix"/>
<feColorMatrix in="SourceAlpha" type="matrix" values="0 0 0 0 0 0 0 0 0 0 0 0 0 0 0 0 0 0 127 0" result="hardAlpha"/>
<feOffset dy="4"/>
<feGaussianBlur stdDeviation="7"/>
<feComposite in2="hardAlpha" operator="out"/>
<feColorMatrix type="matrix" values="0 0 0 0 0.960784 0 0 0 0 0.384314 0 0 0 0 0.0627451 0 0 0 0.45 0"/>
<feBlend mode="normal" in2="BackgroundImageFix" result="effect1_dropShadow_30_1927"/>
<feBlend mode="normal" in="SourceGraphic" in2="effect1_dropShadow_30_1927" result="shape"/>
</filter>
<filter id="filter1_d_30_1927" x="15.0547" y="3.37793" width="43.0381" height="41.6616" filterUnits="userSpaceOnUse" color-interpolation-filters="sRGB">
<feFlood flood-opacity="0" result="BackgroundImageFix"/>
<feColorMatrix in="SourceAlpha" type="matrix" values="0 0 0 0 0 0 0 0 0 0 0 0 0 0 0 0 0 0 127 0" result="hardAlpha"/>
<feOffset dy="4"/>
<feGaussianBlur stdDeviation="7"/>
<feComposite in2="hardAlpha" operator="out"/>
<feColorMatrix type="matrix" values="0 0 0 0 0.960784 0 0 0 0 0.384314 0 0 0 0 0.0627451 0 0 0 0.45 0"/>
<feBlend mode="normal" in2="BackgroundImageFix" result="effect1_dropShadow_30_1927"/>
<feBlend mode="normal" in="SourceGraphic" in2="effect1_dropShadow_30_1927" result="shape"/>
</filter>
<filter id="filter2_d_30_1927" x="-13.1172" y="3.44141" width="43.0586" height="41.6348" filterUnits="userSpaceOnUse" color-interpolation-filters="sRGB">
<feFlood flood-opacity="0" result="BackgroundImageFix"/>
<feColorMatrix in="SourceAlpha" type="matrix" values="0 0 0 0 0 0 0 0 0 0 0 0 0 0 0 0 0 0 127 0" result="hardAlpha"/>
<feOffset dy="4"/>
<feGaussianBlur stdDeviation="7"/>
<feComposite in2="hardAlpha" operator="out"/>
<feColorMatrix type="matrix" values="0 0 0 0 0.960784 0 0 0 0 0.384314 0 0 0 0 0.0627451 0 0 0 0.45 0"/>
<feBlend mode="normal" in2="BackgroundImageFix" result="effect1_dropShadow_30_1927"/>
<feBlend mode="normal" in="SourceGraphic" in2="effect1_dropShadow_30_1927" result="shape"/>
</filter>
<filter id="filter3_d_30_1927" x="3.22998" y="-6.74854" width="38.4932" height="39.2715" filterUnits="userSpaceOnUse" color-interpolation-filters="sRGB">
<feFlood flood-opacity="0" result="BackgroundImageFix"/>
<feColorMatrix in="SourceAlpha" type="matrix" values="0 0 0 0 0 0 0 0 0 0 0 0 0 0 0 0 0 0 127 0" result="hardAlpha"/>
<feOffset dy="4"/>
<feGaussianBlur stdDeviation="7"/>
<feComposite in2="hardAlpha" operator="out"/>
<feColorMatrix type="matrix" values="0 0 0 0 0.960784 0 0 0 0 0.384314 0 0 0 0 0.0627451 0 0 0 0.45 0"/>
<feBlend mode="normal" in2="BackgroundImageFix" result="effect1_dropShadow_30_1927"/>
<feBlend mode="normal" in="SourceGraphic" in2="effect1_dropShadow_30_1927" result="shape"/>
</filter>
<filter id="filter4_d_30_1927" x="16.3242" y="-5.90674" width="36.9443" height="37.5718" filterUnits="userSpaceOnUse" color-interpolation-filters="sRGB">
<feFlood flood-opacity="0" result="BackgroundImageFix"/>
<feColorMatrix in="SourceAlpha" type="matrix" values="0 0 0 0 0 0 0 0 0 0 0 0 0 0 0 0 0 0 127 0" result="hardAlpha"/>
<feOffset dy="4"/>
<feGaussianBlur stdDeviation="7"/>
<feComposite in2="hardAlpha" operator="out"/>
<feColorMatrix type="matrix" values="0 0 0 0 0.960784 0 0 0 0 0.384314 0 0 0 0 0.0627451 0 0 0 0.45 0"/>
<feBlend mode="normal" in2="BackgroundImageFix" result="effect1_dropShadow_30_1927"/>
<feBlend mode="normal" in="SourceGraphic" in2="effect1_dropShadow_30_1927" result="shape"/>
</filter>
<filter id="filter5_d_30_1927" x="-8.32373" y="-5.79395" width="36.957" height="37.582" filterUnits="userSpaceOnUse" color-interpolation-filters="sRGB">
<feFlood flood-opacity="0" result="BackgroundImageFix"/>
<feColorMatrix in="SourceAlpha" type="matrix" values="0 0 0 0 0 0 0 0 0 0 0 0 0 0 0 0 0 0 127 0" result="hardAlpha"/>
<feOffset dy="4"/>
<feGaussianBlur stdDeviation="7"/>
<feComposite in2="hardAlpha" operator="out"/>
<feColorMatrix type="matrix" values="0 0 0 0 0.960784 0 0 0 0 0.384314 0 0 0 0 0.0627451 0 0 0 0.45 0"/>
<feBlend mode="normal" in2="BackgroundImageFix" result="effect1_dropShadow_30_1927"/>
<feBlend mode="normal" in="SourceGraphic" in2="effect1_dropShadow_30_1927" result="shape"/>
</filter>
<filter id="filter6_d_30_1927" x="2.91309" y="21.0596" width="39.1797" height="39.686" filterUnits="userSpaceOnUse" color-interpolation-filters="sRGB">
<feFlood flood-opacity="0" result="BackgroundImageFix"/>
<feColorMatrix in="SourceAlpha" type="matrix" values="0 0 0 0 0 0 0 0 0 0 0 0 0 0 0 0 0 0 127 0" result="hardAlpha"/>
<feOffset dy="4"/>
<feGaussianBlur stdDeviation="7"/>
<feComposite in2="hardAlpha" operator="out"/>
<feColorMatrix type="matrix" values="0 0 0 0 0.960784 0 0 0 0 0.384314 0 0 0 0 0.0627451 0 0 0 0.45 0"/>
<feBlend mode="normal" in2="BackgroundImageFix" result="effect1_dropShadow_30_1927"/>
<feBlend mode="normal" in="SourceGraphic" in2="effect1_dropShadow_30_1927" result="shape"/>
</filter>
<filter id="filter7_d_30_1927" x="14.3369" y="20.5454" width="37.103" height="37.4282" filterUnits="userSpaceOnUse" color-interpolation-filters="sRGB">
<feFlood flood-opacity="0" result="BackgroundImageFix"/>
<feColorMatrix in="SourceAlpha" type="matrix" values="0 0 0 0 0 0 0 0 0 0 0 0 0 0 0 0 0 0 127 0" result="hardAlpha"/>
<feOffset dy="4"/>
<feGaussianBlur stdDeviation="7"/>
<feComposite in2="hardAlpha" operator="out"/>
<feColorMatrix type="matrix" values="0 0 0 0 0.960784 0 0 0 0 0.384314 0 0 0 0 0.0627451 0 0 0 0.45 0"/>
<feBlend mode="normal" in2="BackgroundImageFix" result="effect1_dropShadow_30_1927"/>
<feBlend mode="normal" in="SourceGraphic" in2="effect1_dropShadow_30_1927" result="shape"/>
</filter>
<filter id="filter8_d_30_1927" x="-6.48242" y="20.5273" width="37.1357" height="37.4238" filterUnits="userSpaceOnUse" color-interpolation-filters="sRGB">
<feFlood flood-opacity="0" result="BackgroundImageFix"/>
<feColorMatrix in="SourceAlpha" type="matrix" values="0 0 0 0 0 0 0 0 0 0 0 0 0 0 0 0 0 0 127 0" result="hardAlpha"/>
<feOffset dy="4"/>
<feGaussianBlur stdDeviation="7"/>
<feComposite in2="hardAlpha" operator="out"/>
<feColorMatrix type="matrix" values="0 0 0 0 0.960784 0 0 0 0 0.384314 0 0 0 0 0.0627451 0 0 0 0.45 0"/>
<feBlend mode="normal" in2="BackgroundImageFix" result="effect1_dropShadow_30_1927"/>
<feBlend mode="normal" in="SourceGraphic" in2="effect1_dropShadow_30_1927" result="shape"/>
</filter>
<filter id="filter9_d_30_1927" x="24.063" y="19.1914" width="34.9409" height="35.4863" filterUnits="userSpaceOnUse" color-interpolation-filters="sRGB">
<feFlood flood-opacity="0" result="BackgroundImageFix"/>
<feColorMatrix in="SourceAlpha" type="matrix" values="0 0 0 0 0 0 0 0 0 0 0 0 0 0 0 0 0 0 127 0" result="hardAlpha"/>
<feOffset dy="4"/>
<feGaussianBlur stdDeviation="7"/>
<feComposite in2="hardAlpha" operator="out"/>
<feColorMatrix type="matrix" values="0 0 0 0 0.960784 0 0 0 0 0.384314 0 0 0 0 0.0627451 0 0 0 0.45 0"/>
<feBlend mode="normal" in2="BackgroundImageFix" result="effect1_dropShadow_30_1927"/>
<feBlend mode="normal" in="SourceGraphic" in2="effect1_dropShadow_30_1927" result="shape"/>
</filter>
<filter id="filter10_d_30_1927" x="-13.9961" y="19.2842" width="34.897" height="35.3511" filterUnits="userSpaceOnUse" color-interpolation-filters="sRGB">
<feFlood flood-opacity="0" result="BackgroundImageFix"/>
<feColorMatrix in="SourceAlpha" type="matrix" values="0 0 0 0 0 0 0 0 0 0 0 0 0 0 0 0 0 0 127 0" result="hardAlpha"/>
<feOffset dy="4"/>
<feGaussianBlur stdDeviation="7"/>
<feComposite in2="hardAlpha" operator="out"/>
<feColorMatrix type="matrix" values="0 0 0 0 0.960784 0 0 0 0 0.384314 0 0 0 0 0.0627451 0 0 0 0.45 0"/>
<feBlend mode="normal" in2="BackgroundImageFix" result="effect1_dropShadow_30_1927"/>
<feBlend mode="normal" in="SourceGraphic" in2="effect1_dropShadow_30_1927" result="shape"/>
</filter>
<clipPath id="clip0_30_1927">
<rect width="45" height="46" fill="white"/>
</clipPath>
</defs>
</svg>
