<svg width="140" height="43" viewBox="0 0 140 43" fill="none" xmlns="http://www.w3.org/2000/svg">
<g clip-path="url(#clip0_45_2377)">
<g clip-path="url(#clip1_45_2377)">
<path d="M36.7803 2.00732H43.0818V40.9122H36.7803V2.00732Z" fill="white"/>
<path d="M64.9999 28.5832C64.9999 34.6108 60.0683 35.1587 58.4244 35.1587C54.5887 35.1587 54.0408 31.597 54.0408 29.6792V14.6104H47.7393V29.4052C47.7393 32.9669 48.8352 36.2546 51.027 38.1725C52.9448 40.0903 55.4106 40.9123 58.4244 40.9123C60.6162 40.9123 63.356 40.3643 64.9999 38.7204V40.9123H71.3014V14.6104H64.9999V28.5832Z" fill="white"/>
<path d="M83.6305 5.021H77.329V14.6102H72.6714V20.6378H77.329V40.9121H83.6305V20.6378H88.2881V14.6102H83.6305V5.021Z" fill="white"/>
<path d="M108.015 32.967C106.645 34.0629 104.727 34.8848 102.809 34.8848C98.4256 34.8848 95.4118 31.5971 95.4118 27.2135C95.4118 22.8298 98.4256 19.816 102.809 19.816C104.727 19.816 106.645 20.364 108.015 21.7339L108.837 22.5558L113.22 18.4462L112.124 17.6242C109.659 15.4324 106.371 14.0625 102.809 14.0625C95.1378 14.0625 89.3843 19.816 89.3843 27.4874C89.3843 35.1588 95.1378 40.9124 102.809 40.9124C106.371 40.9124 109.659 39.5425 112.124 37.3507L113.22 36.5287L108.837 32.1451L108.015 32.967Z" fill="white"/>
<path d="M135.412 16.8021C133.495 14.8843 131.577 14.0624 128.563 14.0624C126.371 14.0624 124.179 14.6103 122.535 16.2542V2.00732H116.234V40.9122H122.535V26.3914C122.535 20.3639 126.645 19.8159 128.289 19.8159C132.125 19.8159 131.851 23.3776 131.851 25.2955V40.6383H138.152V25.5695C138.152 22.0077 137.33 18.72 135.412 16.8021Z" fill="white"/>
<path d="M102.535 31.8708C104.956 31.8708 106.919 29.9082 106.919 27.4872C106.919 25.0661 104.956 23.1035 102.535 23.1035C100.114 23.1035 98.1514 25.0661 98.1514 27.4872C98.1514 29.9082 100.114 31.8708 102.535 31.8708Z" fill="white"/>
<path d="M28.013 31.323C25.8211 33.5149 22.5334 34.8848 18.9717 34.8848C12.1222 34.8848 7.19061 29.4052 7.19061 22.0078C7.19061 14.6104 12.1222 9.1308 19.2456 9.1308C22.5334 9.1308 25.8211 10.5007 28.2869 12.9665L29.1089 13.7884L33.2185 9.67876L32.3966 8.85683C28.8349 5.29511 24.1773 3.37726 19.2456 3.37726C8.83448 3.10328 1.16309 11.3226 1.16309 22.0078C1.16309 32.6929 8.83448 40.9123 18.9717 40.9123C23.9033 40.9123 28.8349 38.9944 32.1226 35.4327L32.9446 34.6108L28.8349 30.5011L28.013 31.323Z" fill="white"/>
</g>
</g>
<defs>
<clipPath id="clip0_45_2377">
<rect width="140" height="42.01" fill="white" transform="translate(0 0.660156)"/>
</clipPath>
<clipPath id="clip1_45_2377">
<rect width="140" height="42.01" fill="white" transform="translate(0 0.660156)"/>
</clipPath>
</defs>
</svg>
