<svg width="59" height="74" viewBox="0 0 59 74" fill="none" xmlns="http://www.w3.org/2000/svg">
<g clip-path="url(#clip0_30_1919)" filter="url(#filter0_d_30_1919)">
<path d="M29.5264 36.2756C33.8734 36.2756 38.2204 36.2685 42.5674 36.2756C44.1483 36.2756 45.1844 37.5446 44.9721 39.1727C44.8868 39.8234 44.7637 40.469 44.6581 41.1166C44.0436 44.8898 43.4297 48.6629 42.8165 52.436C42.7284 53.0077 42.4518 53.5292 42.0345 53.9106C41.6172 54.2919 41.0855 54.5091 40.5311 54.5246C39.1422 54.56 37.7523 54.5469 36.3634 54.5479H18.8144C17.2636 54.5479 16.4059 53.7282 16.1442 52.0889C15.5025 48.0807 14.8309 44.0785 14.1766 40.0734C14.0981 39.5927 13.9828 39.1039 14.0022 38.6243C14.0506 37.2632 15.0916 36.2786 16.4378 36.2766C20.7994 36.2726 25.1623 36.2722 29.5264 36.2756ZM30.5276 45.1664C30.5226 44.886 30.4149 44.6183 30.2267 44.4183C30.0385 44.2182 29.7841 44.101 29.5157 44.0907C29.2391 44.0962 28.9756 44.2145 28.7815 44.4202C28.5873 44.626 28.4779 44.9028 28.4767 45.1917C28.4834 45.4719 28.592 45.7389 28.7805 45.9385C28.969 46.1382 29.2232 46.2554 29.4915 46.2663C29.768 46.2618 30.0316 46.1439 30.2255 45.9381C30.4194 45.7322 30.5279 45.455 30.5276 45.1664Z" fill="#F56210"/>
<path d="M29.528 10.0111C30.9712 9.92412 32.2786 10.3522 33.5018 11.1081C34.2665 11.5806 34.7463 12.2859 35.1369 13.1137C35.8842 14.6984 35.9617 16.3094 35.4975 17.978C35.473 18.0422 35.4644 18.1118 35.4723 18.1804C35.7756 19.4676 35.2561 20.5432 34.6698 21.6007C34.1541 22.5286 33.6201 23.4475 33.1296 24.3896C33.0162 24.6081 33.0918 24.9259 32.9988 25.1637C32.3862 26.7251 31.448 27.991 29.9515 28.7388C29.8184 28.8157 29.6693 28.8572 29.5172 28.8599C29.3651 28.8625 29.2147 28.8262 29.0792 28.754C27.5808 28.0112 26.5437 26.7828 26.0533 25.1829C25.8497 24.5211 25.5163 24.006 25.2236 23.4292C24.5926 22.1856 23.8201 21.0006 23.542 19.5941C23.4606 19.1822 23.5187 18.741 23.5071 18.313C23.5104 18.164 23.496 18.0151 23.4644 17.8697C22.9633 16.0361 23.2163 14.3027 24.0876 12.6482C24.4899 11.8852 25.0811 11.3418 25.8139 10.9279C26.9808 10.2732 28.2137 9.93323 29.528 10.0111Z" fill="#F56210"/>
<path d="M43.1943 35.5692H31.2572C31.0469 34.3832 30.7571 33.2357 30.6757 32.071C30.6398 31.5589 31.0285 31.0135 31.2698 30.3628L32.8312 32.5152C33.1966 30.3851 33.5456 28.3511 33.8974 26.2817C35.3648 27.6215 37.1773 28.1882 38.949 28.849C40.0152 29.2467 40.8827 29.8903 41.4574 30.9497C42.2454 32.3958 42.8492 33.9066 43.1943 35.5692Z" fill="#F56210"/>
<path d="M15.8223 35.5551C16.1499 33.9361 16.745 32.4425 17.5175 31.0076C18.1349 29.8621 19.0818 29.2094 20.2313 28.7874C21.0212 28.496 21.8267 28.2329 22.5827 27.8625C23.4637 27.4314 24.2992 26.8971 25.1356 26.4175C25.4632 28.3401 25.8141 30.3883 26.1747 32.5305L27.7167 30.4055C27.9542 30.962 28.1548 31.4174 28.3409 31.8788C28.3707 31.9736 28.3754 32.075 28.3545 32.1723C28.1606 33.2854 27.9668 34.3914 27.7565 35.5582L15.8223 35.5551Z" fill="#F56210"/>
<path d="M29.4514 55.9948C25.6067 55.9948 21.7621 55.9948 17.9175 55.9948C17.7576 55.9948 17.5656 56.0171 17.4464 55.9371C17.3049 55.8359 17.1334 55.6335 17.144 55.4919C17.1576 55.3199 17.3204 55.1124 17.4745 55.0143C17.6083 54.9282 17.8186 54.9616 17.996 54.9616C25.7014 54.9616 33.4068 54.9616 41.1122 54.9616C41.2411 54.9616 41.403 54.9272 41.4912 54.993C41.6453 55.1073 41.8634 55.2966 41.8566 55.4393C41.8488 55.6184 41.6628 55.8289 41.5057 55.9452C41.3943 56.0282 41.1936 55.9908 41.0337 55.9918L29.4514 55.9948Z" fill="#F56210"/>
</g>
<defs>
<filter id="filter0_d_30_1919" x="0" y="0" width="59" height="74" filterUnits="userSpaceOnUse" color-interpolation-filters="sRGB">
<feFlood flood-opacity="0" result="BackgroundImageFix"/>
<feColorMatrix in="SourceAlpha" type="matrix" values="0 0 0 0 0 0 0 0 0 0 0 0 0 0 0 0 0 0 127 0" result="hardAlpha"/>
<feOffset dy="4"/>
<feGaussianBlur stdDeviation="7"/>
<feComposite in2="hardAlpha" operator="out"/>
<feColorMatrix type="matrix" values="0 0 0 0 0.960784 0 0 0 0 0.384314 0 0 0 0 0.0627451 0 0 0 0.45 0"/>
<feBlend mode="normal" in2="BackgroundImageFix" result="effect1_dropShadow_30_1919"/>
<feBlend mode="normal" in="SourceGraphic" in2="effect1_dropShadow_30_1919" result="shape"/>
</filter>
<clipPath id="clip0_30_1919">
<rect width="31" height="46" fill="white" transform="translate(14 10)"/>
</clipPath>
</defs>
</svg>
