<svg width="197" height="46" viewBox="0 0 197 46" fill="none" xmlns="http://www.w3.org/2000/svg">
<rect width="45.8948" height="45.8914" rx="3.67131" fill="#2A3241"/>
<path d="M9.34545 23.7012V22.4079C10.5066 22.4079 11.3167 22.1645 11.7756 21.6778C12.2415 21.1911 12.4744 20.3776 12.4744 19.2372V15.8997C12.4744 14.9401 12.5648 14.1092 12.7456 13.4069C12.9333 12.7047 13.2358 12.1241 13.653 11.6652C14.0702 11.2062 14.6264 10.8655 15.3218 10.643C16.0171 10.4205 16.8758 10.3093 17.8979 10.3093V12.3535C17.0914 12.3535 16.4551 12.4787 15.9893 12.729C15.5304 12.9793 15.2036 13.3687 15.0089 13.8971C14.8211 14.4186 14.7273 15.0861 14.7273 15.8997V20.0716C14.7273 20.614 14.6542 21.1077 14.5082 21.5527C14.3692 21.9977 14.1084 22.3801 13.726 22.6999C13.3436 23.0198 12.7977 23.2666 12.0885 23.4405C11.3862 23.6143 10.4719 23.7012 9.34545 23.7012ZM17.8979 37.0097C16.8758 37.0097 16.0171 36.8985 15.3218 36.676C14.6264 36.4535 14.0702 36.1128 13.653 35.6538C13.2358 35.1949 12.9333 34.6143 12.7456 33.9121C12.5648 33.2098 12.4744 32.3789 12.4744 31.4193V28.0818C12.4744 26.9414 12.2415 26.1279 11.7756 25.6412C11.3167 25.1544 10.5066 24.9111 9.34545 24.9111V23.6178C10.4719 23.6178 11.3862 23.7047 12.0885 23.8785C12.7977 24.0524 13.3436 24.2992 13.726 24.619C14.1084 24.9389 14.3692 25.3213 14.5082 25.7663C14.6542 26.2113 14.7273 26.705 14.7273 27.2474V31.4193C14.7273 32.2328 14.8211 32.9004 15.0089 33.4218C15.2036 33.9433 15.5304 34.3292 15.9893 34.5796C16.4551 34.8368 17.0914 34.9655 17.8979 34.9655V37.0097ZM9.34545 24.9111V22.4079H11.8069V24.9111H9.34545Z" fill="white"/>
<g filter="url(#filter0_d_53_2379)">
<path d="M36.1705 23.6178V24.9111C35.0093 24.9111 34.1957 25.1544 33.7299 25.6412C33.271 26.1279 33.0415 26.9414 33.0415 28.0818V31.4193C33.0415 32.3789 32.9476 33.2098 32.7599 33.9121C32.5791 34.6143 32.2801 35.1949 31.8629 35.6538C31.4457 36.1128 30.8895 36.4535 30.1941 36.676C29.4988 36.8985 28.6401 37.0097 27.618 37.0097V34.9655C28.4245 34.9655 29.0573 34.8368 29.5162 34.5796C29.9821 34.3292 30.3089 33.9433 30.4966 33.4218C30.6913 32.9004 30.7886 32.2328 30.7886 31.4193V27.2474C30.7886 26.705 30.8582 26.2113 30.9972 25.7663C31.1433 25.3213 31.4075 24.9389 31.7899 24.619C32.1723 24.2992 32.7147 24.0524 33.417 23.8785C34.1262 23.7047 35.044 23.6178 36.1705 23.6178ZM27.618 10.3093C28.6401 10.3093 29.4988 10.4205 30.1941 10.643C30.8895 10.8655 31.4457 11.2062 31.8629 11.6652C32.2801 12.1241 32.5791 12.7047 32.7599 13.4069C32.9476 14.1092 33.0415 14.9401 33.0415 15.8997V19.2372C33.0415 20.3776 33.271 21.1911 33.7299 21.6778C34.1957 22.1645 35.0093 22.4079 36.1705 22.4079V23.7012C35.044 23.7012 34.1262 23.6143 33.417 23.4405C32.7147 23.2666 32.1723 23.0198 31.7899 22.6999C31.4075 22.3801 31.1433 21.9977 30.9972 21.5527C30.8582 21.1077 30.7886 20.614 30.7886 20.0716V15.8997C30.7886 15.0861 30.6913 14.4186 30.4966 13.8971C30.3089 13.3687 29.9821 12.9793 29.5162 12.729C29.0573 12.4787 28.4245 12.3535 27.618 12.3535V10.3093ZM36.1705 22.4079V24.9111H33.709V22.4079H36.1705Z" fill="white" fill-opacity="0.48" shape-rendering="crispEdges"/>
</g>
<g filter="url(#filter1_d_53_2379)">
<path d="M24.2811 26.0796L24.1142 27.2061C23.996 27.9987 23.8152 28.847 23.5719 29.751C23.3355 30.6549 23.0886 31.5066 22.8313 32.3063C22.5741 33.1059 22.362 33.7421 22.1951 34.2149H20.3177C20.4081 33.7699 20.5263 33.1824 20.6724 32.4523C20.8184 31.7222 20.9644 30.9052 21.1104 30.0013C21.2634 29.1043 21.3885 28.1865 21.4859 27.2478L21.6111 26.0796H24.2811ZM22.7792 17.2768C22.2647 17.2768 21.8231 17.0926 21.4546 16.7241C21.0861 16.3555 20.9018 15.914 20.9018 15.3995C20.9018 14.8849 21.0861 14.4434 21.4546 14.0749C21.8231 13.7063 22.2647 13.5221 22.7792 13.5221C23.2937 13.5221 23.7353 13.7063 24.1038 14.0749C24.4723 14.4434 24.6566 14.8849 24.6566 15.3995C24.6566 15.7402 24.5697 16.0531 24.3958 16.3381C24.2289 16.6232 24.003 16.8527 23.7179 17.0265C23.4398 17.1934 23.1269 17.2768 22.7792 17.2768Z" fill="#F56210"/>
</g>
<path d="M59.4278 30.1501C58.5175 30.1501 57.6754 29.9851 56.9016 29.6551C56.1392 29.3251 55.4678 28.8643 54.8874 28.2725C54.3184 27.6808 53.8746 26.9866 53.556 26.1901C53.2374 25.3935 53.0781 24.523 53.0781 23.5785C53.0781 22.634 53.2317 21.7634 53.5389 20.9669C53.8576 20.1589 54.3014 19.4648 54.8703 18.8844C55.4507 18.2927 56.1278 17.8375 56.9016 17.5189C57.6754 17.1889 58.5175 17.0239 59.4278 17.0239C60.3382 17.0239 61.1518 17.1775 61.8688 17.4847C62.597 17.792 63.2115 18.2016 63.7122 18.7137C64.2129 19.2144 64.5714 19.7663 64.7876 20.3694L62.7052 21.3424C62.4662 20.7051 62.0622 20.1817 61.4932 19.772C60.9243 19.351 60.2358 19.1405 59.4278 19.1405C58.6313 19.1405 57.9258 19.3282 57.3113 19.7037C56.7081 20.0793 56.2359 20.597 55.8945 21.257C55.5645 21.9171 55.3995 22.6909 55.3995 23.5785C55.3995 24.4661 55.5645 25.2456 55.8945 25.917C56.2359 26.577 56.7081 27.0947 57.3113 27.4703C57.9258 27.8458 58.6313 28.0336 59.4278 28.0336C60.2358 28.0336 60.9243 27.8287 61.4932 27.4191C62.0622 26.998 62.4662 26.4689 62.7052 25.8316L64.7876 26.8046C64.5714 27.4077 64.2129 27.9653 63.7122 28.4774C63.2115 28.9781 62.597 29.382 61.8688 29.6893C61.1518 29.9965 60.3382 30.1501 59.4278 30.1501ZM71.3703 30.1501C70.46 30.1501 69.6293 29.9396 68.8782 29.5186C68.1386 29.0975 67.5468 28.5229 67.103 27.7946C66.6706 27.0663 66.4544 26.2356 66.4544 25.3025C66.4544 24.3693 66.6706 23.5386 67.103 22.8104C67.5468 22.0821 68.1386 21.5074 68.8782 21.0864C69.6179 20.6653 70.4486 20.4548 71.3703 20.4548C72.2807 20.4548 73.1057 20.6653 73.8454 21.0864C74.5851 21.5074 75.1711 22.0821 75.6035 22.8104C76.0473 23.5273 76.2692 24.358 76.2692 25.3025C76.2692 26.2356 76.0473 27.0663 75.6035 27.7946C75.1597 28.5229 74.568 29.0975 73.8283 29.5186C73.0887 29.9396 72.2693 30.1501 71.3703 30.1501ZM71.3703 28.1018C71.871 28.1018 72.3092 27.9823 72.6847 27.7434C73.0716 27.5044 73.3731 27.1744 73.5894 26.7534C73.8169 26.3209 73.9307 25.8373 73.9307 25.3025C73.9307 24.7562 73.8169 24.2783 73.5894 23.8686C73.3731 23.4476 73.0716 23.1176 72.6847 22.8786C72.3092 22.6283 71.871 22.5031 71.3703 22.5031C70.8583 22.5031 70.4088 22.6283 70.0219 22.8786C69.635 23.1176 69.3277 23.4476 69.1001 23.8686C68.8839 24.2783 68.7758 24.7562 68.7758 25.3025C68.7758 25.8373 68.8839 26.3209 69.1001 26.7534C69.3277 27.1744 69.635 27.5044 70.0219 27.7434C70.4088 27.9823 70.8583 28.1018 71.3703 28.1018ZM82.7956 30.1501C81.8966 30.1501 81.0943 29.9396 80.3888 29.5186C79.6833 29.0862 79.1257 28.5001 78.716 27.7604C78.3063 27.0208 78.1015 26.2014 78.1015 25.3025C78.1015 24.3921 78.3063 23.5728 78.716 22.8445C79.1257 22.1162 79.6833 21.5358 80.3888 21.1034C81.1057 20.671 81.9023 20.4548 82.7785 20.4548C83.484 20.4548 84.1099 20.597 84.6561 20.8815C85.2137 21.1546 85.6518 21.5415 85.9705 22.0422L85.6291 22.5031V17.0239H87.8651V29.9453H85.7486V28.153L85.9875 28.5968C85.6689 29.0975 85.2251 29.4844 84.6561 29.7576C84.0871 30.0193 83.467 30.1501 82.7956 30.1501ZM83.0345 28.1018C83.5466 28.1018 83.9961 27.9823 84.383 27.7434C84.7699 27.5044 85.0715 27.1744 85.2877 26.7534C85.5153 26.3323 85.6291 25.8487 85.6291 25.3025C85.6291 24.7676 85.5153 24.2897 85.2877 23.8686C85.0715 23.4362 84.7699 23.1005 84.383 22.8616C83.9961 22.6226 83.5466 22.5031 83.0345 22.5031C82.5338 22.5031 82.0843 22.6283 81.6861 22.8786C81.2878 23.1176 80.9748 23.4476 80.7473 23.8686C80.531 24.2783 80.4229 24.7562 80.4229 25.3025C80.4229 25.8487 80.531 26.3323 80.7473 26.7534C80.9748 27.1744 81.2878 27.5044 81.6861 27.7434C82.0843 27.9823 82.5338 28.1018 83.0345 28.1018ZM94.8614 30.1501C93.9055 30.1501 93.0691 29.9339 92.3522 29.5015C91.6353 29.0691 91.0777 28.483 90.6794 27.7434C90.2812 27.0037 90.082 26.1844 90.082 25.2854C90.082 24.3523 90.2812 23.5273 90.6794 22.8104C91.0891 22.0821 91.641 21.5074 92.3352 21.0864C93.0407 20.6653 93.8259 20.4548 94.6907 20.4548C95.419 20.4548 96.0563 20.5743 96.6025 20.8132C97.1601 21.0522 97.6323 21.3822 98.0192 21.8033C98.4061 22.2243 98.702 22.7079 98.9068 23.2542C99.1117 23.789 99.2141 24.3693 99.2141 24.9952C99.2141 25.1545 99.2027 25.3195 99.1799 25.4902C99.1686 25.6609 99.1401 25.8089 99.0946 25.934H91.9255V24.2271H97.8315L96.7732 25.0294C96.8756 24.5059 96.8471 24.0393 96.6878 23.6297C96.5399 23.22 96.2895 22.8957 95.9368 22.6567C95.5954 22.4178 95.18 22.2983 94.6907 22.2983C94.2242 22.2983 93.8088 22.4178 93.4447 22.6567C93.0805 22.8843 92.8017 23.2257 92.6083 23.6809C92.4262 24.1247 92.3579 24.6652 92.4034 25.3025C92.3579 25.8714 92.4319 26.3778 92.6253 26.8216C92.8302 27.2541 93.126 27.5898 93.5129 27.8287C93.9112 28.0677 94.3664 28.1872 94.8785 28.1872C95.3906 28.1872 95.823 28.0791 96.1758 27.8629C96.5399 27.6466 96.8244 27.3565 97.0292 26.9923L98.8386 27.8799C98.6565 28.3237 98.372 28.7163 97.9851 29.0577C97.5982 29.3991 97.1373 29.6665 96.6025 29.86C96.079 30.0534 95.4987 30.1501 94.8614 30.1501ZM105.74 30.1501C104.841 30.1501 104.039 29.9396 103.333 29.5186C102.627 29.0862 102.07 28.5001 101.66 27.7604C101.251 27.0208 101.046 26.2014 101.046 25.3025C101.046 24.3921 101.251 23.5728 101.66 22.8445C102.07 22.1162 102.627 21.5358 103.333 21.1034C104.05 20.671 104.846 20.4548 105.723 20.4548C106.428 20.4548 107.054 20.597 107.6 20.8815C108.158 21.1546 108.596 21.5415 108.915 22.0422L108.573 22.5031V17.0239H110.809V29.9453H108.693V28.153L108.932 28.5968C108.613 29.0975 108.169 29.4844 107.6 29.7576C107.031 30.0193 106.411 30.1501 105.74 30.1501ZM105.979 28.1018C106.491 28.1018 106.94 27.9823 107.327 27.7434C107.714 27.5044 108.016 27.1744 108.232 26.7534C108.459 26.3323 108.573 25.8487 108.573 25.3025C108.573 24.7676 108.459 24.2897 108.232 23.8686C108.016 23.4362 107.714 23.1005 107.327 22.8616C106.94 22.6226 106.491 22.5031 105.979 22.5031C105.478 22.5031 105.029 22.6283 104.63 22.8786C104.232 23.1176 103.919 23.4476 103.691 23.8686C103.475 24.2783 103.367 24.7562 103.367 25.3025C103.367 25.8487 103.475 26.3323 103.691 26.7534C103.919 27.1744 104.232 27.5044 104.63 27.7434C105.029 27.9823 105.478 28.1018 105.979 28.1018Z" fill="black" fill-opacity="0.8"/>
<path d="M115.351 29.9453V17.2287H117.997V22.725H122.947V17.2287H125.593V29.9453H122.947V25.0294H117.997V29.9453H115.351ZM131.062 30.1501C130.391 30.1501 129.81 30.042 129.321 29.8258C128.832 29.6096 128.456 29.3024 128.194 28.9041C127.933 28.4944 127.802 28.0108 127.802 27.4532C127.802 26.9297 127.921 26.4689 128.16 26.0706C128.399 25.6609 128.763 25.3195 129.253 25.0464C129.753 24.7733 130.374 24.5799 131.113 24.4661L133.964 24.0052V25.8828L131.574 26.3096C131.21 26.3778 130.931 26.4973 130.738 26.668C130.544 26.8273 130.448 27.0606 130.448 27.3679C130.448 27.6523 130.556 27.8742 130.772 28.0336C130.988 28.1929 131.256 28.2725 131.574 28.2725C131.995 28.2725 132.365 28.1815 132.684 27.9994C133.002 27.8173 133.247 27.5727 133.418 27.2654C133.6 26.9468 133.691 26.5997 133.691 26.2242V23.8004C133.691 23.4476 133.549 23.1517 133.264 22.9128C132.991 22.6738 132.615 22.5543 132.137 22.5543C131.682 22.5543 131.278 22.6795 130.926 22.9298C130.584 23.1802 130.334 23.5102 130.175 23.9199L128.126 22.9469C128.308 22.4234 128.598 21.974 128.997 21.5984C129.395 21.2229 129.873 20.9327 130.431 20.7279C130.988 20.5231 131.597 20.4207 132.257 20.4207C133.042 20.4207 133.736 20.5629 134.339 20.8474C134.943 21.1319 135.409 21.5302 135.739 22.0422C136.08 22.5429 136.251 23.129 136.251 23.8004V29.9453H133.861V28.4432L134.442 28.3408C134.169 28.7505 133.867 29.0918 133.537 29.365C133.207 29.6267 132.837 29.8201 132.428 29.9453C132.018 30.0819 131.563 30.1501 131.062 30.1501ZM138.641 29.9453V20.6255H141.031V22.8616L140.86 22.5372C141.065 21.7521 141.401 21.2229 141.867 20.9498C142.345 20.6653 142.908 20.5231 143.557 20.5231H144.103V22.7421H143.301C142.675 22.7421 142.169 22.9355 141.782 23.3224C141.395 23.698 141.201 24.2328 141.201 24.9269V29.9453H138.641ZM145.737 29.9453V20.6255H148.127V22.8957L147.871 22.5202C148.008 21.8033 148.338 21.2741 148.861 20.9327C149.385 20.5913 150.01 20.4207 150.739 20.4207C151.513 20.4207 152.19 20.6198 152.77 21.0181C153.362 21.405 153.732 21.9284 153.879 22.5884L153.146 22.6567C153.453 21.8943 153.891 21.331 154.46 20.9669C155.029 20.6027 155.695 20.4207 156.457 20.4207C157.128 20.4207 157.72 20.5686 158.232 20.8645C158.756 21.1603 159.165 21.5757 159.461 22.1105C159.757 22.634 159.905 23.2485 159.905 23.954V29.9453H157.345V24.5002C157.345 24.1361 157.276 23.8231 157.14 23.5614C157.015 23.2997 156.832 23.0948 156.594 22.9469C156.355 22.799 156.064 22.725 155.723 22.725C155.393 22.725 155.103 22.799 154.852 22.9469C154.613 23.0948 154.426 23.2997 154.289 23.5614C154.164 23.8231 154.101 24.1361 154.101 24.5002V29.9453H151.541V24.5002C151.541 24.1361 151.473 23.8231 151.336 23.5614C151.211 23.2997 151.029 23.0948 150.79 22.9469C150.551 22.799 150.261 22.725 149.919 22.725C149.589 22.725 149.299 22.799 149.049 22.9469C148.81 23.0948 148.622 23.2997 148.486 23.5614C148.36 23.8231 148.298 24.1361 148.298 24.5002V29.9453H145.737ZM166.728 30.1501C165.806 30.1501 164.964 29.9396 164.201 29.5186C163.45 29.0975 162.847 28.5229 162.392 27.7946C161.948 27.0549 161.726 26.2185 161.726 25.2854C161.726 24.3409 161.948 23.5045 162.392 22.7762C162.847 22.0479 163.45 21.4733 164.201 21.0522C164.964 20.6312 165.806 20.4207 166.728 20.4207C167.649 20.4207 168.486 20.6312 169.237 21.0522C169.988 21.4733 170.585 22.0479 171.029 22.7762C171.484 23.5045 171.712 24.3409 171.712 25.2854C171.712 26.2185 171.484 27.0549 171.029 27.7946C170.585 28.5229 169.988 29.0975 169.237 29.5186C168.486 29.9396 167.649 30.1501 166.728 30.1501ZM166.728 27.8458C167.194 27.8458 167.598 27.7377 167.94 27.5215C168.292 27.3053 168.566 27.0037 168.759 26.6168C168.964 26.2299 169.066 25.7861 169.066 25.2854C169.066 24.7847 168.964 24.3466 168.759 23.9711C168.566 23.5842 168.292 23.2826 167.94 23.0664C167.598 22.8388 167.194 22.725 166.728 22.725C166.261 22.725 165.852 22.8388 165.499 23.0664C165.146 23.2826 164.867 23.5842 164.662 23.9711C164.469 24.3466 164.372 24.7847 164.372 25.2854C164.372 25.7861 164.469 26.2299 164.662 26.6168C164.867 27.0037 165.146 27.3053 165.499 27.5215C165.852 27.7377 166.261 27.8458 166.728 27.8458ZM173.732 29.9453V20.6255H176.122V22.469L175.986 22.0593C176.202 21.5017 176.549 21.092 177.027 20.8303C177.516 20.5572 178.085 20.4207 178.734 20.4207C179.439 20.4207 180.054 20.5686 180.577 20.8645C181.112 21.1603 181.527 21.5757 181.823 22.1105C182.119 22.634 182.267 23.2485 182.267 23.954V29.9453H179.707V24.5002C179.707 24.1361 179.633 23.8231 179.485 23.5614C179.348 23.2997 179.149 23.0948 178.887 22.9469C178.637 22.799 178.341 22.725 178 22.725C177.67 22.725 177.374 22.799 177.112 22.9469C176.85 23.0948 176.646 23.2997 176.498 23.5614C176.361 23.8231 176.293 24.1361 176.293 24.5002V29.9453H173.732ZM185.747 33.7006C185.474 33.7006 185.206 33.6778 184.945 33.6323C184.694 33.5868 184.472 33.5128 184.279 33.4104V31.3109C184.438 31.3564 184.626 31.3962 184.842 31.4303C185.058 31.4645 185.258 31.4815 185.44 31.4815C185.94 31.4815 186.299 31.3621 186.515 31.1231C186.731 30.8955 186.908 30.6338 187.044 30.3379L187.676 28.887L187.642 31.0207L183.545 20.6255H186.293L189.007 28.0165H187.983L190.697 20.6255H193.445L189.451 30.8158C189.201 31.4531 188.893 31.9879 188.529 32.4204C188.165 32.8528 187.75 33.1714 187.283 33.3762C186.828 33.5925 186.316 33.7006 185.747 33.7006Z" fill="#F56210"/>
<defs>
<filter id="filter0_d_53_2379" x="23.9469" y="10.3096" width="15.8949" height="34.0428" filterUnits="userSpaceOnUse" color-interpolation-filters="sRGB">
<feFlood flood-opacity="0" result="BackgroundImageFix"/>
<feColorMatrix in="SourceAlpha" type="matrix" values="0 0 0 0 0 0 0 0 0 0 0 0 0 0 0 0 0 0 127 0" result="hardAlpha"/>
<feOffset dy="3.67131"/>
<feGaussianBlur stdDeviation="1.83566"/>
<feComposite in2="hardAlpha" operator="out"/>
<feColorMatrix type="matrix" values="0 0 0 0 0 0 0 0 0 0 0 0 0 0 0 0 0 0 0.25 0"/>
<feBlend mode="normal" in2="BackgroundImageFix" result="effect1_dropShadow_53_2379"/>
<feBlend mode="normal" in="SourceGraphic" in2="effect1_dropShadow_53_2379" result="shape"/>
</filter>
<filter id="filter1_d_53_2379" x="16.6466" y="13.5225" width="11.6815" height="28.035" filterUnits="userSpaceOnUse" color-interpolation-filters="sRGB">
<feFlood flood-opacity="0" result="BackgroundImageFix"/>
<feColorMatrix in="SourceAlpha" type="matrix" values="0 0 0 0 0 0 0 0 0 0 0 0 0 0 0 0 0 0 127 0" result="hardAlpha"/>
<feOffset dy="3.67131"/>
<feGaussianBlur stdDeviation="1.83566"/>
<feComposite in2="hardAlpha" operator="out"/>
<feColorMatrix type="matrix" values="0 0 0 0 0 0 0 0 0 0 0 0 0 0 0 0 0 0 0.25 0"/>
<feBlend mode="normal" in2="BackgroundImageFix" result="effect1_dropShadow_53_2379"/>
<feBlend mode="normal" in="SourceGraphic" in2="effect1_dropShadow_53_2379" result="shape"/>
</filter>
</defs>
</svg>
