<svg width="73" height="74" viewBox="0 0 73 74" fill="none" xmlns="http://www.w3.org/2000/svg">
<g filter="url(#filter0_d_30_1926)">
<path d="M14.5446 30.775C15.0764 25.316 17.5471 20.2374 21.4988 16.5009C24.5291 13.6357 28.264 11.7167 32.2637 10.9186C31.9062 11.171 31.5649 11.4507 31.2409 11.7523L31.2404 11.7528C29.8111 13.0869 28.624 14.9304 27.6724 17.0719L27.6723 17.0722C26.7148 19.2306 25.9736 21.7442 25.4737 24.4593L25.4734 24.461C25.097 26.547 24.861 28.6566 24.7672 30.775H14.5446ZM25.4737 41.5404L25.4738 41.5411C25.9758 44.2556 26.7147 46.7692 27.6723 48.9278L27.6724 48.9281C28.624 51.0696 29.8111 52.9131 31.2404 54.2472L31.2409 54.2477C31.5673 54.5515 31.9112 54.8331 32.2716 55.087C22.8114 53.2138 15.5004 45.1755 14.5439 35.225H24.7676C24.8648 37.3867 25.1018 39.5129 25.4737 41.5404Z" fill="#F56210" stroke="#F56210"/>
<path d="M31.8926 18.6692L31.8926 18.6693C31.0858 20.4849 30.4259 22.6882 29.9712 25.1642L31.8926 18.6692ZM31.8926 18.6692C32.7053 16.8392 33.6119 15.5293 34.4866 14.7126C35.3505 13.9067 36.035 13.7085 36.4989 13.7085C36.9626 13.7085 37.6472 13.9065 38.5135 14.7149L38.5139 14.7152C39.388 15.5291 40.2924 16.8386 41.1053 18.6692L41.1055 18.6698M31.8926 18.6692L41.1055 18.6698M41.1055 18.6698C41.9142 20.4848 42.5719 22.6877 43.0266 25.1639C43.3626 27.0177 43.576 28.8923 43.6653 30.775M41.1055 18.6698L43.6653 30.775M29.9711 40.8353L29.9712 40.8355C30.4258 43.3116 31.0857 45.515 31.8926 47.3307L31.8926 47.3308C32.7053 49.1609 33.612 50.4708 34.4844 51.2851L29.9711 40.8353ZM29.9711 40.8353C29.6419 39.0468 29.4268 37.1567 29.3333 35.225H43.6646M29.9711 40.8353L43.6646 35.225M43.6646 35.225C43.5711 37.1567 43.356 39.0468 43.0268 40.8353L43.0267 40.8355C42.5721 43.3116 41.9121 45.515 41.1053 47.3307L41.1053 47.3308C40.2924 49.1613 39.388 50.4708 38.5116 51.2871L38.5112 51.2874C37.6474 52.0933 36.9629 52.2915 36.4989 52.2915C36.0373 52.2915 35.3506 52.0934 34.4845 51.2852L43.6646 35.225ZM43.6653 30.775H29.3338C29.4291 28.8433 29.644 26.9531 29.9712 25.1645L43.6653 30.775Z" fill="#F56210" stroke="#F56210"/>
<path d="M41.7596 11.7528L41.759 11.7523C41.4351 11.4508 41.0939 11.1711 40.7366 10.9187C44.7362 11.7168 48.471 13.6357 51.5011 16.5009C55.4529 20.2374 57.9235 25.316 58.4554 30.775H48.2323C48.1352 28.6133 47.8981 26.4871 47.5263 24.4596L47.5262 24.4593C47.0264 21.7447 46.2875 19.2309 45.3276 17.072C44.378 14.93 43.1886 13.0867 41.7596 11.7528ZM47.5262 41.5407L47.5265 41.539C47.903 39.453 48.1389 37.3434 48.2328 35.225H58.456C57.4996 45.1754 50.1887 53.2136 40.7287 55.0869C41.0889 54.833 41.4327 54.5514 41.759 54.2477L41.7596 54.2472C43.1886 52.9133 44.3781 51.0698 45.3277 48.9277C46.2876 46.7689 47.0265 44.2552 47.5262 41.5407Z" fill="#F56210" stroke="#F56210"/>
</g>
<defs>
<filter id="filter0_d_30_1926" x="0" y="0" width="73" height="74" filterUnits="userSpaceOnUse" color-interpolation-filters="sRGB">
<feFlood flood-opacity="0" result="BackgroundImageFix"/>
<feColorMatrix in="SourceAlpha" type="matrix" values="0 0 0 0 0 0 0 0 0 0 0 0 0 0 0 0 0 0 127 0" result="hardAlpha"/>
<feOffset dy="4"/>
<feGaussianBlur stdDeviation="7"/>
<feComposite in2="hardAlpha" operator="out"/>
<feColorMatrix type="matrix" values="0 0 0 0 0.960784 0 0 0 0 0.384314 0 0 0 0 0.0627451 0 0 0 0.45 0"/>
<feBlend mode="normal" in2="BackgroundImageFix" result="effect1_dropShadow_30_1926"/>
<feBlend mode="normal" in="SourceGraphic" in2="effect1_dropShadow_30_1926" result="shape"/>
</filter>
</defs>
</svg>
