<svg width="140" height="48" viewBox="0 0 140 48" fill="none" xmlns="http://www.w3.org/2000/svg">
<g clip-path="url(#clip0_45_2370)">
<g clip-path="url(#clip1_45_2370)">
<g clip-path="url(#clip2_45_2370)">
<path d="M59.6039 24.2925C59.6039 30.8803 54.4571 35.7182 48.1781 35.7182C41.8991 35.7182 36.6494 30.8803 36.6494 24.2925C36.6494 17.6532 41.7962 12.8667 48.0752 12.8667C54.3542 12.8667 59.6039 17.6532 59.6039 24.2925ZM54.5601 24.2925C54.5601 20.1751 51.575 17.3958 48.1266 17.3958C44.6783 17.3958 41.6932 20.1751 41.6932 24.2925C41.6932 28.3584 44.6783 31.1891 48.1266 31.1891C51.575 31.1891 54.5601 28.3584 54.5601 24.2925Z" fill="white"/>
<path d="M84.3081 24.2925C84.3081 30.8803 79.1613 35.7182 72.8823 35.7182C66.6033 35.7182 61.4565 30.8803 61.4565 24.2925C61.4565 17.7046 66.6033 12.8667 72.8823 12.8667C79.1613 12.8667 84.3081 17.6532 84.3081 24.2925ZM79.2643 24.2925C79.2643 20.1751 76.2792 17.3958 72.8308 17.3958C69.3825 17.3958 66.3974 20.1751 66.3974 24.2925C66.3974 28.3584 69.3825 31.1891 72.8308 31.1891C76.2792 31.1891 79.2643 28.3584 79.2643 24.2925Z" fill="white"/>
<path d="M107.983 13.5355V34.0195C107.983 42.4602 102.991 45.9085 97.1234 45.9085C91.5649 45.9085 88.271 42.2028 86.9843 39.1662L91.359 37.3649C92.1311 39.2177 94.0354 41.4308 97.1234 41.4308C100.881 41.4308 103.197 39.1148 103.197 34.74V33.0931H103.042C101.91 34.4827 99.7482 35.6665 97.0205 35.6665C91.3076 35.6665 86.1094 30.6741 86.1094 24.2922C86.1094 17.8587 91.359 12.8149 97.0205 12.8149C99.7482 12.8149 101.91 14.0502 103.042 15.3883H103.197V13.5355H107.983ZM103.557 24.3436C103.557 20.3292 100.881 17.3955 97.4837 17.3955C94.0353 17.3955 91.1017 20.3292 91.1017 24.3436C91.1017 28.3066 93.9839 31.2403 97.4837 31.2403C100.881 31.1888 103.557 28.3066 103.557 24.3436Z" fill="white"/>
<path d="M115.806 1.54395V34.9977H110.917V1.54395H115.806Z" fill="white"/>
<path d="M134.849 28.0496L138.761 30.6229C137.526 32.4758 134.489 35.6668 129.239 35.6668C122.754 35.6668 117.917 30.6744 117.917 24.241C117.917 17.4988 122.806 12.8667 128.673 12.8667C134.592 12.8667 137.474 17.6017 138.452 20.1236L138.967 21.4103L123.732 27.7408C124.916 30.0568 126.717 31.1891 129.291 31.1891C131.813 31.1891 133.563 29.9539 134.849 28.0496ZM122.857 23.9322L133.048 19.7119C132.482 18.2708 130.783 17.2929 128.828 17.2929C126.306 17.2929 122.754 19.506 122.857 23.9322Z" fill="white"/>
<path d="M18.1726 21.3073V16.4694H34.4877C34.6421 17.2928 34.7451 18.3222 34.7451 19.403C34.7451 23.0572 33.7672 27.5348 30.5247 30.7258C27.4367 33.9683 23.4222 35.7182 18.1726 35.7182C8.39376 35.7182 0.210449 27.7407 0.210449 18.0134C0.210449 8.28604 8.44523 0.308594 18.1726 0.308594C23.5766 0.308594 27.4367 2.41876 30.3189 5.198L26.922 8.59484C24.8633 6.63908 22.0326 5.14653 18.1726 5.14653C11.0186 5.14653 5.46012 10.9109 5.46012 18.0134C5.46012 25.1159 11.0186 30.8802 18.1726 30.8802C22.8046 30.8802 25.4295 29.0274 27.1279 27.329C28.5175 25.9394 29.3925 23.9836 29.7527 21.3073H18.1726Z" fill="white"/>
</g>
</g>
</g>
<defs>
<clipPath id="clip0_45_2370">
<rect width="140" height="47.35" fill="white"/>
</clipPath>
<clipPath id="clip1_45_2370">
<rect width="140" height="47.35" fill="white"/>
</clipPath>
<clipPath id="clip2_45_2370">
<rect width="139.991" height="47.35" fill="white" transform="translate(0.00439453)"/>
</clipPath>
</defs>
</svg>
