<svg width="108" height="68" viewBox="0 0 108 68" fill="none" xmlns="http://www.w3.org/2000/svg">
<rect x="30.6582" y="0.38916" width="45.8948" height="45.8914" rx="3.67131" fill="#2A3241"/>
<path d="M40.0037 24.0909V22.7976C41.1648 22.7976 41.9749 22.5542 42.4338 22.0675C42.8997 21.5807 43.1326 20.7672 43.1326 19.6269V16.2893C43.1326 15.3298 43.223 14.4989 43.4038 13.7966C43.5915 13.0943 43.894 12.5137 44.3112 12.0548C44.7284 11.5959 45.2846 11.2552 45.98 11.0327C46.6753 10.8102 47.534 10.6989 48.5561 10.6989V12.7432C47.7496 12.7432 47.1133 12.8683 46.6475 13.1186C46.1886 13.369 45.8618 13.7583 45.6671 14.2868C45.4793 14.8083 45.3855 15.4758 45.3855 16.2893V20.4613C45.3855 21.0036 45.3125 21.4973 45.1664 21.9423C45.0274 22.3873 44.7666 22.7697 44.3842 23.0896C44.0018 23.4094 43.4559 23.6563 42.7467 23.8301C42.0444 24.0039 41.1301 24.0909 40.0037 24.0909ZM48.5561 37.3994C47.534 37.3994 46.6753 37.2881 45.98 37.0656C45.2846 36.8431 44.7284 36.5024 44.3112 36.0435C43.894 35.5846 43.5915 35.004 43.4038 34.3017C43.223 33.5994 43.1326 32.7685 43.1326 31.809V28.4714C43.1326 27.3311 42.8997 26.5175 42.4338 26.0308C41.9749 25.5441 41.1648 25.3007 40.0037 25.3007V24.0074C41.1301 24.0074 42.0444 24.0943 42.7467 24.2682C43.4559 24.442 44.0018 24.6888 44.3842 25.0087C44.7666 25.3285 45.0274 25.711 45.1664 26.156C45.3125 26.601 45.3855 27.0947 45.3855 27.637V31.809C45.3855 32.6225 45.4793 33.29 45.6671 33.8115C45.8618 34.333 46.1886 34.7189 46.6475 34.9692C47.1133 35.2265 47.7496 35.3551 48.5561 35.3551V37.3994ZM40.0037 25.3007V22.7976H42.4651V25.3007H40.0037Z" fill="white"/>
<g filter="url(#filter0_d_14_1751)">
<path d="M66.8287 24.0074V25.3007C65.6675 25.3007 64.8539 25.5441 64.3881 26.0308C63.9292 26.5175 63.6997 27.3311 63.6997 28.4714V31.809C63.6997 32.7685 63.6058 33.5994 63.4181 34.3017C63.2373 35.004 62.9383 35.5846 62.5211 36.0435C62.1039 36.5024 61.5477 36.8431 60.8523 37.0656C60.157 37.2881 59.2983 37.3994 58.2762 37.3994V35.3551C59.0827 35.3551 59.7155 35.2265 60.1744 34.9692C60.6403 34.7189 60.9671 34.333 61.1548 33.8115C61.3495 33.29 61.4468 32.6225 61.4468 31.809V27.637C61.4468 27.0947 61.5164 26.601 61.6554 26.156C61.8015 25.711 62.0657 25.3285 62.4481 25.0087C62.8305 24.6888 63.3729 24.442 64.0752 24.2682C64.7844 24.0943 65.7022 24.0074 66.8287 24.0074ZM58.2762 10.6989C59.2983 10.6989 60.157 10.8102 60.8523 11.0327C61.5477 11.2552 62.1039 11.5959 62.5211 12.0548C62.9383 12.5137 63.2373 13.0943 63.4181 13.7966C63.6058 14.4989 63.6997 15.3298 63.6997 16.2893V19.6269C63.6997 20.7672 63.9292 21.5807 64.3881 22.0675C64.8539 22.5542 65.6675 22.7976 66.8287 22.7976V24.0909C65.7022 24.0909 64.7844 24.0039 64.0752 23.8301C63.3729 23.6563 62.8305 23.4094 62.4481 23.0896C62.0657 22.7697 61.8015 22.3873 61.6554 21.9423C61.5164 21.4973 61.4468 21.0036 61.4468 20.4613V16.2893C61.4468 15.4758 61.3495 14.8083 61.1548 14.2868C60.9671 13.7583 60.6403 13.369 60.1744 13.1186C59.7155 12.8683 59.0827 12.7432 58.2762 12.7432V10.6989ZM66.8287 22.7976V25.3007H64.3672V22.7976H66.8287Z" fill="white" fill-opacity="0.48" shape-rendering="crispEdges"/>
</g>
<g filter="url(#filter1_d_14_1751)">
<path d="M54.9393 26.4688L54.7724 27.5952C54.6542 28.3879 54.4734 29.2362 54.2301 30.1401C53.9937 31.044 53.7468 31.8958 53.4895 32.6954C53.2323 33.495 53.0202 34.1313 52.8533 34.6041H50.976C51.0663 34.1591 51.1845 33.5715 51.3306 32.8414C51.4766 32.1114 51.6226 31.2943 51.7686 30.3904C51.9216 29.4935 52.0468 28.5756 52.1441 27.6369L52.2693 26.4688H54.9393ZM53.4374 17.666C52.9229 17.666 52.4813 17.4817 52.1128 17.1132C51.7443 16.7447 51.56 16.3032 51.56 15.7886C51.56 15.2741 51.7443 14.8325 52.1128 14.464C52.4813 14.0955 52.9229 13.9112 53.4374 13.9112C53.9519 13.9112 54.3935 14.0955 54.762 14.464C55.1305 14.8325 55.3148 15.2741 55.3148 15.7886C55.3148 16.1293 55.2279 16.4422 55.054 16.7273C54.8871 17.0124 54.6612 17.2418 54.3761 17.4157C54.098 17.5826 53.7851 17.666 53.4374 17.666Z" fill="#F56210"/>
</g>
<path d="M6.0513 64.7544C5.4113 64.7544 4.8193 64.6384 4.2753 64.4064C3.7393 64.1744 3.2673 63.8504 2.8593 63.4344C2.4593 63.0184 2.1473 62.5304 1.9233 61.9704C1.6993 61.4104 1.5873 60.7984 1.5873 60.1344C1.5873 59.4704 1.6953 58.8584 1.9113 58.2984C2.1353 57.7304 2.4473 57.2424 2.8473 56.8344C3.2553 56.4184 3.7313 56.0984 4.2753 55.8744C4.8193 55.6424 5.4113 55.5264 6.0513 55.5264C6.69131 55.5264 7.2633 55.6344 7.7673 55.8504C8.2793 56.0664 8.7113 56.3544 9.06331 56.7144C9.4153 57.0664 9.6673 57.4544 9.81931 57.8784L8.3553 58.5624C8.18731 58.1144 7.90331 57.7464 7.50331 57.4584C7.10331 57.1624 6.61931 57.0144 6.0513 57.0144C5.4913 57.0144 4.9953 57.1464 4.5633 57.4104C4.1393 57.6744 3.8073 58.0384 3.5673 58.5024C3.3353 58.9664 3.2193 59.5104 3.2193 60.1344C3.2193 60.7584 3.3353 61.3064 3.5673 61.7784C3.8073 62.2424 4.1393 62.6064 4.5633 62.8704C4.9953 63.1344 5.4913 63.2664 6.0513 63.2664C6.61931 63.2664 7.10331 63.1224 7.50331 62.8344C7.90331 62.5384 8.18731 62.1664 8.3553 61.7184L9.81931 62.4024C9.6673 62.8264 9.4153 63.2184 9.06331 63.5784C8.7113 63.9304 8.2793 64.2144 7.7673 64.4304C7.2633 64.6464 6.69131 64.7544 6.0513 64.7544ZM14.4471 64.7544C13.8071 64.7544 13.2231 64.6064 12.6951 64.3104C12.1751 64.0144 11.7591 63.6104 11.4471 63.0984C11.1431 62.5864 10.9911 62.0024 10.9911 61.3464C10.9911 60.6904 11.1431 60.1064 11.4471 59.5944C11.7591 59.0824 12.1751 58.6784 12.6951 58.3824C13.2151 58.0864 13.7991 57.9384 14.4471 57.9384C15.0871 57.9384 15.6671 58.0864 16.1871 58.3824C16.7071 58.6784 17.1191 59.0824 17.4231 59.5944C17.7351 60.0984 17.8911 60.6824 17.8911 61.3464C17.8911 62.0024 17.7351 62.5864 17.4231 63.0984C17.1111 63.6104 16.6951 64.0144 16.1751 64.3104C15.6551 64.6064 15.0791 64.7544 14.4471 64.7544ZM14.4471 63.3144C14.7991 63.3144 15.1071 63.2304 15.3711 63.0624C15.6431 62.8944 15.8551 62.6624 16.0071 62.3664C16.1671 62.0624 16.2471 61.7224 16.2471 61.3464C16.2471 60.9624 16.1671 60.6264 16.0071 60.3384C15.8551 60.0424 15.6431 59.8104 15.3711 59.6424C15.1071 59.4664 14.7991 59.3784 14.4471 59.3784C14.0871 59.3784 13.7711 59.4664 13.4991 59.6424C13.2271 59.8104 13.0111 60.0424 12.8511 60.3384C12.6991 60.6264 12.6231 60.9624 12.6231 61.3464C12.6231 61.7224 12.6991 62.0624 12.8511 62.3664C13.0111 62.6624 13.2271 62.8944 13.4991 63.0624C13.7711 63.2304 14.0871 63.3144 14.4471 63.3144ZM22.4792 64.7544C21.8472 64.7544 21.2832 64.6064 20.7872 64.3104C20.2912 64.0064 19.8992 63.5944 19.6112 63.0744C19.3232 62.5544 19.1792 61.9784 19.1792 61.3464C19.1792 60.7064 19.3232 60.1304 19.6112 59.6184C19.8992 59.1064 20.2912 58.6984 20.7872 58.3944C21.2912 58.0904 21.8512 57.9384 22.4672 57.9384C22.9632 57.9384 23.4032 58.0384 23.7872 58.2384C24.1792 58.4304 24.4872 58.7024 24.7112 59.0544L24.4712 59.3784V55.5264H26.0432V64.6104H24.5552V63.3504L24.7232 63.6624C24.4992 64.0144 24.1872 64.2864 23.7872 64.4784C23.3872 64.6624 22.9512 64.7544 22.4792 64.7544ZM22.6472 63.3144C23.0072 63.3144 23.3232 63.2304 23.5952 63.0624C23.8672 62.8944 24.0792 62.6624 24.2312 62.3664C24.3912 62.0704 24.4712 61.7304 24.4712 61.3464C24.4712 60.9704 24.3912 60.6344 24.2312 60.3384C24.0792 60.0344 23.8672 59.7984 23.5952 59.6304C23.3232 59.4624 23.0072 59.3784 22.6472 59.3784C22.2952 59.3784 21.9792 59.4664 21.6992 59.6424C21.4192 59.8104 21.1992 60.0424 21.0392 60.3384C20.8872 60.6264 20.8112 60.9624 20.8112 61.3464C20.8112 61.7304 20.8872 62.0704 21.0392 62.3664C21.1992 62.6624 21.4192 62.8944 21.6992 63.0624C21.9792 63.2304 22.2952 63.3144 22.6472 63.3144ZM30.9617 64.7544C30.2897 64.7544 29.7017 64.6024 29.1977 64.2984C28.6937 63.9944 28.3017 63.5824 28.0217 63.0624C27.7417 62.5424 27.6017 61.9664 27.6017 61.3344C27.6017 60.6784 27.7417 60.0984 28.0217 59.5944C28.3097 59.0824 28.6977 58.6784 29.1857 58.3824C29.6817 58.0864 30.2337 57.9384 30.8417 57.9384C31.3537 57.9384 31.8017 58.0224 32.1857 58.1904C32.5777 58.3584 32.9097 58.5904 33.1817 58.8864C33.4537 59.1824 33.6617 59.5224 33.8057 59.9064C33.9497 60.2824 34.0217 60.6904 34.0217 61.1304C34.0217 61.2424 34.0137 61.3584 33.9977 61.4784C33.9897 61.5984 33.9697 61.7024 33.9377 61.7904H28.8977V60.5904H33.0497L32.3057 61.1544C32.3777 60.7864 32.3577 60.4584 32.2457 60.1704C32.1417 59.8824 31.9657 59.6544 31.7177 59.4864C31.4777 59.3184 31.1857 59.2344 30.8417 59.2344C30.5137 59.2344 30.2217 59.3184 29.9657 59.4864C29.7097 59.6464 29.5137 59.8864 29.3777 60.2064C29.2497 60.5184 29.2017 60.8984 29.2337 61.3464C29.2017 61.7464 29.2537 62.1024 29.3897 62.4144C29.5337 62.7184 29.7417 62.9544 30.0137 63.1224C30.2937 63.2904 30.6137 63.3744 30.9737 63.3744C31.3337 63.3744 31.6377 63.2984 31.8857 63.1464C32.1417 62.9944 32.3417 62.7904 32.4857 62.5344L33.7577 63.1584C33.6297 63.4704 33.4297 63.7464 33.1577 63.9864C32.8857 64.2264 32.5617 64.4144 32.1857 64.5504C31.8177 64.6864 31.4097 64.7544 30.9617 64.7544ZM38.6094 64.7544C37.9774 64.7544 37.4134 64.6064 36.9174 64.3104C36.4214 64.0064 36.0294 63.5944 35.7414 63.0744C35.4534 62.5544 35.3094 61.9784 35.3094 61.3464C35.3094 60.7064 35.4534 60.1304 35.7414 59.6184C36.0294 59.1064 36.4214 58.6984 36.9174 58.3944C37.4214 58.0904 37.9814 57.9384 38.5974 57.9384C39.0934 57.9384 39.5334 58.0384 39.9174 58.2384C40.3094 58.4304 40.6174 58.7024 40.8414 59.0544L40.6014 59.3784V55.5264H42.1734V64.6104H40.6854V63.3504L40.8534 63.6624C40.6294 64.0144 40.3174 64.2864 39.9174 64.4784C39.5174 64.6624 39.0814 64.7544 38.6094 64.7544ZM38.7774 63.3144C39.1374 63.3144 39.4534 63.2304 39.7254 63.0624C39.9974 62.8944 40.2094 62.6624 40.3614 62.3664C40.5214 62.0704 40.6014 61.7304 40.6014 61.3464C40.6014 60.9704 40.5214 60.6344 40.3614 60.3384C40.2094 60.0344 39.9974 59.7984 39.7254 59.6304C39.4534 59.4624 39.1374 59.3784 38.7774 59.3784C38.4254 59.3784 38.1094 59.4664 37.8294 59.6424C37.5494 59.8104 37.3294 60.0424 37.1694 60.3384C37.0174 60.6264 36.9414 60.9624 36.9414 61.3464C36.9414 61.7304 37.0174 62.0704 37.1694 62.3664C37.3294 62.6624 37.5494 62.8944 37.8294 63.0624C38.1094 63.2304 38.4254 63.3144 38.7774 63.3144Z" fill="black" fill-opacity="0.8"/>
<path d="M46.1528 64.6104V55.6704H48.0128V59.5344H51.4928V55.6704H53.3528V64.6104H51.4928V61.1544H48.0128V64.6104H46.1528ZM57.1979 64.7544C56.7259 64.7544 56.3179 64.6784 55.9739 64.5264C55.6299 64.3744 55.3659 64.1584 55.1819 63.8784C54.9979 63.5904 54.9059 63.2504 54.9059 62.8584C54.9059 62.4904 54.9899 62.1664 55.1579 61.8864C55.3259 61.5984 55.5819 61.3584 55.9259 61.1664C56.2779 60.9744 56.7139 60.8384 57.2339 60.7584L59.2379 60.4344V61.7544L57.5579 62.0544C57.3019 62.1024 57.1059 62.1864 56.9699 62.3064C56.8339 62.4184 56.7659 62.5824 56.7659 62.7984C56.7659 62.9984 56.8419 63.1544 56.9939 63.2664C57.1459 63.3784 57.3339 63.4344 57.5579 63.4344C57.8539 63.4344 58.1139 63.3704 58.3379 63.2424C58.5619 63.1144 58.7339 62.9424 58.8539 62.7264C58.9819 62.5024 59.0459 62.2584 59.0459 61.9944V60.2904C59.0459 60.0424 58.9459 59.8344 58.7459 59.6664C58.5539 59.4984 58.2899 59.4144 57.9539 59.4144C57.6339 59.4144 57.3499 59.5024 57.1019 59.6784C56.8619 59.8544 56.6859 60.0864 56.5739 60.3744L55.1339 59.6904C55.2619 59.3224 55.4659 59.0064 55.7459 58.7424C56.0259 58.4784 56.3619 58.2744 56.7539 58.1304C57.1459 57.9864 57.5739 57.9144 58.0379 57.9144C58.5899 57.9144 59.0779 58.0144 59.5019 58.2144C59.9259 58.4144 60.2539 58.6944 60.4859 59.0544C60.7259 59.4064 60.8459 59.8184 60.8459 60.2904V64.6104H59.1659V63.5544L59.5739 63.4824C59.3819 63.7704 59.1699 64.0104 58.9379 64.2024C58.7059 64.3864 58.4459 64.5224 58.1579 64.6104C57.8699 64.7064 57.5499 64.7544 57.1979 64.7544ZM62.526 64.6104V58.0584H64.206V59.6304L64.086 59.4024C64.23 58.8504 64.466 58.4784 64.794 58.2864C65.13 58.0864 65.526 57.9864 65.982 57.9864H66.366V59.5464H65.802C65.362 59.5464 65.006 59.6824 64.734 59.9544C64.462 60.2184 64.326 60.5944 64.326 61.0824V64.6104H62.526ZM67.5149 64.6104V58.0584H69.1949V59.6544L69.0149 59.3904C69.1109 58.8864 69.3429 58.5144 69.7109 58.2744C70.0789 58.0344 70.5189 57.9144 71.0309 57.9144C71.5749 57.9144 72.0509 58.0544 72.4589 58.3344C72.8749 58.6064 73.1349 58.9744 73.2389 59.4384L72.7229 59.4864C72.9389 58.9504 73.2469 58.5544 73.6469 58.2984C74.0469 58.0424 74.5149 57.9144 75.0509 57.9144C75.5229 57.9144 75.9389 58.0184 76.2989 58.2264C76.6669 58.4344 76.9549 58.7264 77.1629 59.1024C77.3709 59.4704 77.4749 59.9024 77.4749 60.3984V64.6104H75.6749V60.7824C75.6749 60.5264 75.6269 60.3064 75.5309 60.1224C75.4429 59.9384 75.3149 59.7944 75.1469 59.6904C74.9789 59.5864 74.7749 59.5344 74.5349 59.5344C74.3029 59.5344 74.0989 59.5864 73.9229 59.6904C73.7549 59.7944 73.6229 59.9384 73.5269 60.1224C73.4389 60.3064 73.3949 60.5264 73.3949 60.7824V64.6104H71.5949V60.7824C71.5949 60.5264 71.5469 60.3064 71.4509 60.1224C71.3629 59.9384 71.2349 59.7944 71.0669 59.6904C70.8989 59.5864 70.6949 59.5344 70.4549 59.5344C70.2229 59.5344 70.0189 59.5864 69.8429 59.6904C69.6749 59.7944 69.5429 59.9384 69.4469 60.1224C69.3589 60.3064 69.3149 60.5264 69.3149 60.7824V64.6104H67.5149ZM82.2714 64.7544C81.6234 64.7544 81.0314 64.6064 80.4954 64.3104C79.9674 64.0144 79.5434 63.6104 79.2234 63.0984C78.9114 62.5784 78.7554 61.9904 78.7554 61.3344C78.7554 60.6704 78.9114 60.0824 79.2234 59.5704C79.5434 59.0584 79.9674 58.6544 80.4954 58.3584C81.0314 58.0624 81.6234 57.9144 82.2714 57.9144C82.9194 57.9144 83.5074 58.0624 84.0354 58.3584C84.5634 58.6544 84.9834 59.0584 85.2954 59.5704C85.6154 60.0824 85.7754 60.6704 85.7754 61.3344C85.7754 61.9904 85.6154 62.5784 85.2954 63.0984C84.9834 63.6104 84.5634 64.0144 84.0354 64.3104C83.5074 64.6064 82.9194 64.7544 82.2714 64.7544ZM82.2714 63.1344C82.5994 63.1344 82.8834 63.0584 83.1234 62.9064C83.3714 62.7544 83.5634 62.5424 83.6994 62.2704C83.8434 61.9984 83.9154 61.6864 83.9154 61.3344C83.9154 60.9824 83.8434 60.6744 83.6994 60.4104C83.5634 60.1384 83.3714 59.9264 83.1234 59.7744C82.8834 59.6144 82.5994 59.5344 82.2714 59.5344C81.9434 59.5344 81.6554 59.6144 81.4074 59.7744C81.1594 59.9264 80.9634 60.1384 80.8194 60.4104C80.6834 60.6744 80.6154 60.9824 80.6154 61.3344C80.6154 61.6864 80.6834 61.9984 80.8194 62.2704C80.9634 62.5424 81.1594 62.7544 81.4074 62.9064C81.6554 63.0584 81.9434 63.1344 82.2714 63.1344ZM87.1958 64.6104V58.0584H88.8758V59.3544L88.7798 59.0664C88.9318 58.6744 89.1758 58.3864 89.5118 58.2024C89.8558 58.0104 90.2558 57.9144 90.7118 57.9144C91.2078 57.9144 91.6398 58.0184 92.0078 58.2264C92.3838 58.4344 92.6758 58.7264 92.8838 59.1024C93.0918 59.4704 93.1958 59.9024 93.1958 60.3984V64.6104H91.3958V60.7824C91.3958 60.5264 91.3438 60.3064 91.2398 60.1224C91.1438 59.9384 91.0038 59.7944 90.8198 59.6904C90.6438 59.5864 90.4358 59.5344 90.1958 59.5344C89.9638 59.5344 89.7558 59.5864 89.5718 59.6904C89.3878 59.7944 89.2438 59.9384 89.1398 60.1224C89.0438 60.3064 88.9958 60.5264 88.9958 60.7824V64.6104H87.1958ZM95.6422 67.2504C95.4502 67.2504 95.2622 67.2344 95.0782 67.2024C94.9022 67.1704 94.7462 67.1184 94.6102 67.0464V65.5704C94.7222 65.6024 94.8542 65.6304 95.0062 65.6544C95.1582 65.6784 95.2982 65.6904 95.4262 65.6904C95.7782 65.6904 96.0302 65.6064 96.1822 65.4384C96.3342 65.2784 96.4582 65.0944 96.5542 64.8864L96.9982 63.8664L96.9742 65.3664L94.0942 58.0584H96.0262L97.9342 63.2544H97.2142L99.1222 58.0584H101.054L98.2462 65.2224C98.0702 65.6704 97.8542 66.0464 97.5982 66.3504C97.3422 66.6544 97.0502 66.8784 96.7222 67.0224C96.4022 67.1744 96.0422 67.2504 95.6422 67.2504Z" fill="#F56210"/>
<defs>
<filter id="filter0_d_14_1751" x="54.6051" y="10.6987" width="15.8949" height="34.0433" filterUnits="userSpaceOnUse" color-interpolation-filters="sRGB">
<feFlood flood-opacity="0" result="BackgroundImageFix"/>
<feColorMatrix in="SourceAlpha" type="matrix" values="0 0 0 0 0 0 0 0 0 0 0 0 0 0 0 0 0 0 127 0" result="hardAlpha"/>
<feOffset dy="3.67131"/>
<feGaussianBlur stdDeviation="1.83566"/>
<feComposite in2="hardAlpha" operator="out"/>
<feColorMatrix type="matrix" values="0 0 0 0 0 0 0 0 0 0 0 0 0 0 0 0 0 0 0.25 0"/>
<feBlend mode="normal" in2="BackgroundImageFix" result="effect1_dropShadow_14_1751"/>
<feBlend mode="normal" in="SourceGraphic" in2="effect1_dropShadow_14_1751" result="shape"/>
</filter>
<filter id="filter1_d_14_1751" x="47.3048" y="13.9111" width="11.6815" height="28.0355" filterUnits="userSpaceOnUse" color-interpolation-filters="sRGB">
<feFlood flood-opacity="0" result="BackgroundImageFix"/>
<feColorMatrix in="SourceAlpha" type="matrix" values="0 0 0 0 0 0 0 0 0 0 0 0 0 0 0 0 0 0 127 0" result="hardAlpha"/>
<feOffset dy="3.67131"/>
<feGaussianBlur stdDeviation="1.83566"/>
<feComposite in2="hardAlpha" operator="out"/>
<feColorMatrix type="matrix" values="0 0 0 0 0 0 0 0 0 0 0 0 0 0 0 0 0 0 0.25 0"/>
<feBlend mode="normal" in2="BackgroundImageFix" result="effect1_dropShadow_14_1751"/>
<feBlend mode="normal" in="SourceGraphic" in2="effect1_dropShadow_14_1751" result="shape"/>
</filter>
</defs>
</svg>
