<svg width="116" height="31" viewBox="0 0 116 31" fill="none" xmlns="http://www.w3.org/2000/svg">
<g clip-path="url(#clip0_45_2374)">
<path d="M112.725 12.4438L106.45 11.487L103.636 5.49504C103.424 5.04853 102.691 5.04853 102.484 5.49504L99.673 11.487L93.398 12.4438C92.8837 12.5236 92.6764 13.1495 93.0392 13.5202L97.596 18.1926L96.5196 24.7986C96.4318 25.3248 96.994 25.7155 97.4564 25.4604L103.062 22.3627L108.667 25.4604C109.125 25.7155 109.692 25.3288 109.604 24.7986L108.527 18.1926L113.084 13.5202C113.447 13.1495 113.24 12.5236 112.725 12.4438Z" fill="#F5D74F"/>
<path d="M90.2683 12.4438L83.9933 11.487L81.1827 5.49504C80.9714 5.04853 80.2378 5.04853 80.0305 5.49504L77.2199 11.487L70.9448 12.4438C70.4306 12.5236 70.2233 13.1495 70.586 13.5202L75.1428 18.1926L74.0664 24.7986C73.9787 25.3248 74.5408 25.7155 75.0033 25.4604L80.6086 22.3627L86.2139 25.4604C86.6723 25.7155 87.2384 25.3288 87.1507 24.7986L86.0743 18.1926L90.6311 13.5202C90.9899 13.1495 90.7826 12.5236 90.2683 12.4438Z" fill="#F5D74F"/>
<path d="M67.8154 12.4438L61.5403 11.487L58.7297 5.49504C58.5184 5.04853 57.7849 5.04853 57.5775 5.49504L54.759 11.487L48.4839 12.4438C47.9696 12.5236 47.7623 13.1495 48.1251 13.5202L52.6859 18.1926L51.6095 24.7986C51.5218 25.3248 52.0839 25.7155 52.5463 25.4604L58.1516 22.3627L63.7569 25.4604C64.2154 25.7155 64.7815 25.3288 64.6938 24.7986L63.6174 18.1926L68.1742 13.5202C68.5369 13.1495 68.3296 12.5236 67.8154 12.4438Z" fill="#F5D74F"/>
<path d="M45.3582 12.4438L39.0831 11.487L36.2725 5.49504C36.0612 5.04853 35.3277 5.04853 35.1204 5.49504L32.3097 11.487L26.0347 12.4438C25.5204 12.5236 25.3131 13.1495 25.6759 13.5202L30.2327 18.1926L29.1563 24.7986C29.0686 25.3248 29.6307 25.7155 30.0931 25.4604L35.6984 22.3627L41.3037 25.4604C41.7622 25.7155 42.3283 25.3288 42.2406 24.7986L41.1642 18.1926L45.721 13.5202C46.0798 13.1495 45.8724 12.5236 45.3582 12.4438Z" fill="#F5D74F"/>
<path d="M22.9051 12.4438L16.6301 11.487L13.8155 5.49504C13.6042 5.04853 12.8706 5.04853 12.6633 5.49504L9.85271 11.487L3.57766 12.4438C3.06338 12.5236 2.85607 13.1495 3.21886 13.5202L7.77564 18.1926L6.69924 24.7986C6.61153 25.3248 7.17365 25.7155 7.63611 25.4604L13.2414 22.3627L18.8467 25.4604C19.3051 25.7155 19.8713 25.3288 19.7835 24.7986L18.7071 18.1926L23.2639 13.5202C23.6267 13.1495 23.4194 12.5236 22.9051 12.4438Z" fill="#F5D74F"/>
</g>
<defs>
<clipPath id="clip0_45_2374">
<rect width="115" height="30" fill="white" transform="translate(0.5 0.350098)"/>
</clipPath>
</defs>
</svg>
