<svg width="140" height="39" viewBox="0 0 140 39" fill="none" xmlns="http://www.w3.org/2000/svg">
<g clip-path="url(#clip0_45_2385)">
<g clip-path="url(#clip1_45_2385)">
<path d="M16.3776 4.02085C19.0461 4.53443 21.4352 6.00465 23.0962 8.15534C24.7114 10.2216 25.5902 12.7681 25.5931 15.3907C25.5931 17.156 24.6031 19.8685 22.795 23.1835C23.3546 24.1307 23.957 25.1636 24.6459 26.2844C26.928 22.3234 28.6497 18.3196 28.6497 15.3922C28.6668 12.2295 27.6878 9.14164 25.8515 6.56651C24.194 4.21512 21.8693 2.41487 19.178 1.39839C17.6447 0.78359 16.0058 0.475078 14.3539 0.490282C6.43269 0.490282 0.0175781 7.1638 0.0175781 15.3863C0.0175781 21.371 7.20717 31.7463 11.4694 37.3877C11.8013 37.8413 12.2354 38.2102 12.7366 38.4646C13.2378 38.7189 13.7919 38.8514 14.3539 38.8514C14.916 38.8514 15.4701 38.7189 15.9713 38.4646C16.4725 38.2102 16.9066 37.8413 17.2385 37.3877C18.1429 36.2256 19.133 34.8479 20.2094 33.3411C19.5634 32.3938 18.961 31.4466 18.3585 30.4993C17.2821 32.0498 16.12 33.6423 14.8715 35.3212C14.81 35.3922 14.734 35.4491 14.6486 35.4881C14.5632 35.5271 14.4704 35.5473 14.3765 35.5473C14.2826 35.5473 14.1898 35.5271 14.1043 35.4881C14.0189 35.4491 13.9429 35.3922 13.8814 35.3212C7.12153 26.4047 3.11845 18.9597 3.11845 15.3863C3.07875 12.3624 4.23876 9.44597 6.34452 7.27545C8.45028 5.10493 11.3302 3.85714 14.3539 3.80526C15.0338 3.81309 15.7114 3.88528 16.3776 4.02085Z" fill="white"/>
<path d="M22.9181 33.3399C23.9517 34.8468 24.9853 36.2244 25.889 37.3865C26.2208 37.8401 26.655 38.2091 27.1562 38.4634C27.6574 38.7177 28.2115 38.8503 28.7735 38.8503C29.3356 38.8503 29.8897 38.7177 30.3909 38.4634C30.8921 38.2091 31.3262 37.8401 31.6581 37.3865C35.8775 31.7466 43.0671 21.3277 43.0671 15.3851C43.07 7.16409 36.6549 0.490572 28.7337 0.490572C27.0692 0.478591 25.4179 0.785598 23.869 1.39499C24.9162 2.15563 25.87 3.0371 26.7107 4.02114C27.3766 3.8833 28.0544 3.8111 28.7344 3.80555C30.233 3.8273 31.7126 4.14418 33.0886 4.7381C34.4646 5.33201 35.7101 6.1913 36.7538 7.26685C37.7976 8.3424 38.6191 9.61311 39.1714 11.0063C39.7238 12.3996 39.9961 13.888 39.9728 15.3866C39.9728 18.96 35.969 26.408 29.2099 35.3207C29.1484 35.3917 29.0724 35.4487 28.987 35.4877C28.9015 35.5267 28.8087 35.5469 28.7148 35.5469C28.6209 35.5469 28.5281 35.5267 28.4427 35.4877C28.3573 35.4487 28.2813 35.3917 28.2198 35.3207C26.9713 33.6418 25.8085 32.0486 24.7328 30.4989C23.0986 28.1403 21.5896 25.6973 20.2122 23.1801C18.4004 19.8216 17.4546 17.109 17.4546 15.3866C17.4504 12.7627 18.33 10.214 19.9516 8.1512C19.1168 7.46395 18.1704 6.92505 17.1534 6.55794C15.316 9.13371 14.3365 12.2227 14.3537 15.3866C14.3537 18.3139 16.0762 22.3178 18.3576 26.2788C19.7781 28.7329 21.3713 31.1442 22.9181 33.3399Z" fill="white"/>
<path d="M66.1897 12.4162V24.5568C66.1897 30.1539 63.2187 33.0813 57.4932 33.0813C51.7241 33.0813 48.9688 30.1967 48.9688 24.517V12.2441C48.9684 12.0481 49.0074 11.8541 49.0835 11.6734C49.1597 11.4928 49.2713 11.3294 49.4119 11.1928C49.5525 11.0562 49.7191 10.9493 49.9018 10.8784C50.0846 10.8075 50.2797 10.7741 50.4756 10.7801C50.677 10.7691 50.8785 10.7984 51.0683 10.8665C51.2581 10.9345 51.4324 11.0399 51.5808 11.1763C51.7293 11.3127 51.849 11.4775 51.9328 11.6609C52.0166 11.8443 52.0629 12.0426 52.0689 12.2441V24.4261C52.0689 28.602 53.7914 30.3244 57.4932 30.3244C61.153 30.3244 63.0903 28.6884 63.0903 24.5125V12.4162C63.0796 12.2093 63.1103 12.0023 63.1806 11.8075C63.2509 11.6126 63.3594 11.4337 63.4998 11.2813C63.6401 11.129 63.8095 11.0061 63.9979 10.9201C64.1863 10.834 64.3901 10.7864 64.5971 10.7801C64.8108 10.7772 65.0228 10.8179 65.2202 10.8997C65.4176 10.9814 65.5962 11.1025 65.7453 11.2557C65.8943 11.4088 66.0105 11.5906 66.087 11.7902C66.1634 11.9897 66.1983 12.2027 66.1897 12.4162Z" fill="white"/>
<path d="M83.8843 25.2029C83.8843 30.326 81.0861 33.0813 76.0915 33.0813C74.9938 33.0921 73.9023 32.9174 72.8629 32.5645V37.0852C72.8659 37.28 72.8283 37.4732 72.7524 37.6527C72.6766 37.8322 72.5642 37.9939 72.4225 38.1275C72.2807 38.2611 72.1127 38.3638 71.9291 38.4289C71.7454 38.494 71.5503 38.5201 71.356 38.5057C71.1626 38.5164 70.969 38.4876 70.787 38.4211C70.605 38.3547 70.4385 38.2519 70.2975 38.119C70.1566 37.9861 70.0441 37.8259 69.967 37.6482C69.8899 37.4704 69.8498 37.2789 69.8491 37.0852V19.089C69.8424 18.9176 69.8711 18.7467 69.9336 18.587C69.9961 18.4273 70.091 18.2822 70.2123 18.1609C70.3336 18.0396 70.4786 17.9448 70.6384 17.8823C70.7981 17.8198 70.969 17.791 71.1404 17.7977C71.9584 17.7977 72.346 18.3146 72.4317 19.089L72.5181 20.2511C73.0279 19.4574 73.7384 18.8124 74.5776 18.3815C75.4168 17.9505 76.355 17.7489 77.2971 17.797C81.3873 17.7977 83.8843 20.1655 83.8843 25.2029ZM80.8705 25.3749C80.8705 21.8879 79.3201 20.3811 76.7803 20.3811C76.2796 20.3508 75.7779 20.4228 75.3059 20.5926C74.8339 20.7625 74.4015 21.0267 74.0349 21.3691C73.6683 21.7115 73.3753 22.125 73.1736 22.5843C72.972 23.0436 72.866 23.5392 72.8621 24.0408H72.8193V29.8963C73.7936 30.3395 74.8498 30.5742 75.9202 30.5851C78.976 30.5416 80.8705 29.0347 80.8705 25.3749Z" fill="white"/>
<path d="M105.196 16.5922C105.202 16.7615 105.172 16.9301 105.109 17.0872C105.046 17.2443 104.95 17.3864 104.828 17.5041C104.706 17.6218 104.561 17.7126 104.402 17.7706C104.243 17.8286 104.073 17.8525 103.904 17.8407C103.602 17.8878 103.294 17.8153 103.044 17.6383C102.795 17.4614 102.624 17.1942 102.569 16.8934C102.096 15.817 101.148 13.4921 97.4006 13.4921C93.1812 13.4921 90.4259 16.161 90.4259 21.6725C90.4259 27.4416 93.3968 30.2833 98.2187 30.2833C99.8475 30.2728 101.458 29.9362 102.954 29.2932C103.245 29.1906 103.55 29.1327 103.859 29.1212C104.021 29.1184 104.183 29.1492 104.333 29.2115C104.484 29.2738 104.62 29.3664 104.733 29.4835C104.846 29.6006 104.933 29.7397 104.991 29.8921C105.048 30.0446 105.073 30.2071 105.064 30.3697C105.079 30.6654 105.005 30.9587 104.852 31.2119C104.698 31.4652 104.472 31.6666 104.203 31.7902C102.217 32.6883 100.054 33.1296 97.8746 33.0814C91.3303 33.0814 87.2837 29.2068 87.2837 21.888C87.2837 14.6984 91.2447 10.7803 97.315 10.7803C102.785 10.7803 105.196 14.0089 105.196 16.5922Z" fill="white"/>
<path d="M108.425 13.2341C108.411 12.9721 108.451 12.71 108.543 12.464C108.634 12.2181 108.775 11.9934 108.957 11.8039C109.138 11.6143 109.356 11.4639 109.598 11.3618C109.84 11.2598 110.1 11.2083 110.362 11.2104C110.626 11.2046 110.887 11.2537 111.131 11.3545C111.374 11.4553 111.594 11.6056 111.776 11.796C111.958 11.9863 112.099 12.2124 112.189 12.46C112.279 12.7076 112.317 12.9712 112.3 13.2341C112.317 13.497 112.279 13.7606 112.189 14.0082C112.099 14.2558 111.958 14.4819 111.776 14.6723C111.594 14.8626 111.374 15.0129 111.131 15.1137C110.887 15.2145 110.626 15.2636 110.362 15.2578C110.1 15.26 109.84 15.2084 109.598 15.1064C109.356 15.0043 109.138 14.8539 108.957 14.6643C108.775 14.4748 108.634 14.2501 108.543 14.0042C108.451 13.7582 108.411 13.4962 108.425 13.2341ZM111.783 19.1324V31.6171C111.786 31.8119 111.748 32.0052 111.672 32.1847C111.596 32.3641 111.484 32.5258 111.342 32.6594C111.201 32.7931 111.033 32.8957 110.849 32.9608C110.665 33.0259 110.47 33.0521 110.276 33.0376C110.082 33.0483 109.889 33.0196 109.707 32.9531C109.525 32.8866 109.358 32.7838 109.217 32.6509C109.076 32.518 108.964 32.3578 108.887 32.1801C108.81 32.0024 108.77 31.8108 108.769 31.6171V19.1324C108.77 18.9387 108.81 18.7471 108.887 18.5694C108.964 18.3917 109.076 18.2315 109.217 18.0986C109.358 17.9657 109.525 17.8629 109.707 17.7964C109.889 17.7299 110.082 17.7012 110.276 17.7119C110.468 17.7048 110.66 17.7361 110.841 17.8039C111.021 17.8717 111.186 17.9747 111.327 18.1068C111.467 18.239 111.579 18.3978 111.658 18.5738C111.736 18.7499 111.778 18.9398 111.783 19.1324Z" fill="white"/>
<path d="M120.221 20.5097V28.5181C120.221 30.025 120.91 30.4126 121.943 30.4126C122.202 30.4126 122.46 30.3698 122.977 30.3262C123.142 30.2942 123.313 30.3009 123.475 30.3459C123.637 30.391 123.787 30.473 123.912 30.5857C124.037 30.6983 124.134 30.8385 124.196 30.9951C124.258 31.1517 124.283 31.3205 124.268 31.4883C124.283 31.804 124.182 32.1142 123.984 32.3602C123.785 32.6062 123.503 32.7709 123.192 32.8232C122.537 32.9269 121.875 32.9844 121.212 32.9952C118.585 32.9952 117.294 32.0479 117.294 28.733V20.5097H115.787C115.626 20.5087 115.466 20.4754 115.317 20.4118C115.169 20.3481 115.034 20.2555 114.922 20.1392C114.809 20.0229 114.722 19.8853 114.663 19.7345C114.605 19.5838 114.577 19.4229 114.582 19.2613C114.573 19.0987 114.598 18.9362 114.656 18.7839C114.713 18.6315 114.8 18.4924 114.913 18.3754C115.027 18.2583 115.162 18.1657 115.313 18.1033C115.463 18.041 115.625 18.0102 115.787 18.0128H117.294V15.1282C117.295 14.9345 117.335 14.743 117.412 14.5652C117.489 14.3875 117.602 14.2273 117.743 14.0944C117.884 13.9616 118.05 13.8587 118.232 13.7923C118.414 13.7258 118.608 13.697 118.801 13.7078C118.992 13.6976 119.184 13.7271 119.363 13.7944C119.542 13.8616 119.706 13.9651 119.843 14.0985C119.981 14.2318 120.089 14.3921 120.162 14.5693C120.234 14.7465 120.269 14.9368 120.265 15.1282V18.0128H123.107C123.27 18.0065 123.434 18.0349 123.586 18.096C123.738 18.1571 123.875 18.2496 123.989 18.3675C124.103 18.4853 124.19 18.6258 124.246 18.7798C124.302 18.9338 124.324 19.0979 124.312 19.2613C124.321 19.4238 124.296 19.5863 124.239 19.7387C124.181 19.8911 124.094 20.0301 123.981 20.1472C123.868 20.2642 123.732 20.3568 123.581 20.4192C123.431 20.4816 123.27 20.5124 123.107 20.5097H120.221Z" fill="white"/>
<path d="M139.982 19.0026C139.972 19.2878 139.898 19.5672 139.767 19.8206L133.395 35.0186C132.319 37.5584 130.726 38.42 128.401 38.42C127.884 38.42 127.626 38.3771 127.411 38.3771C127.244 38.3763 127.078 38.342 126.924 38.2763C126.77 38.2106 126.631 38.1148 126.515 37.9944C126.399 37.8741 126.307 37.7318 126.247 37.5757C126.186 37.4197 126.158 37.2531 126.163 37.0858C126.147 36.9217 126.167 36.756 126.221 36.6004C126.276 36.4447 126.363 36.3027 126.478 36.184C126.593 36.0654 126.731 35.973 126.885 35.9132C127.039 35.8533 127.204 35.8275 127.368 35.8374C127.584 35.8374 127.799 35.8802 128.273 35.8802C129.737 35.8802 130.598 35.4069 131.028 34.2441L131.674 32.608L126.163 19.8642C126.032 19.6108 125.958 19.3314 125.948 19.0461C125.947 18.8634 125.984 18.6825 126.056 18.5147C126.129 18.3468 126.235 18.1956 126.368 18.0704C126.501 17.9453 126.658 17.8488 126.83 17.787C127.002 17.7252 127.185 17.6995 127.368 17.7113C127.676 17.7163 127.976 17.8132 128.229 17.9896C128.482 18.1659 128.677 18.4138 128.788 18.7014L133.093 29.0767L137.228 18.6578C137.334 18.3731 137.53 18.1307 137.786 17.9675C138.043 17.8043 138.345 17.7291 138.648 17.7534C138.82 17.7397 138.992 17.762 139.154 17.8188C139.317 17.8756 139.466 17.9656 139.591 18.0832C139.717 18.2008 139.816 18.3433 139.884 18.5016C139.951 18.6599 139.985 18.8306 139.982 19.0026Z" fill="white"/>
</g>
</g>
<defs>
<clipPath id="clip0_45_2385">
<rect width="140" height="38.36" fill="white" transform="translate(0 0.490234)"/>
</clipPath>
<clipPath id="clip1_45_2385">
<rect width="139.964" height="38.36" fill="white" transform="translate(0.0175781 0.490234)"/>
</clipPath>
</defs>
</svg>
