<svg width="40" height="35" viewBox="0 0 40 35" fill="none" xmlns="http://www.w3.org/2000/svg">
<path d="M0.499998 8.67247C0.499999 6.34974 1.22222 4.46752 2.66667 3.02582C4.11111 1.58413 5.99691 0.863282 8.32408 0.863282C10.571 0.863283 12.4568 1.66422 13.9815 3.26611C15.5062 4.94808 16.2685 7.31086 16.2685 10.3544C16.2685 13.398 15.2654 17.0824 13.2593 21.4074C11.1728 25.7325 8.08333 30.2178 3.99073 34.8633L1.22222 32.4604C3.95062 29.2567 5.83642 26.3332 6.87963 23.6901C7.92284 21.1271 8.52469 18.7643 8.68519 16.6018L8.32408 16.6018C5.99691 16.6018 4.11111 15.8809 2.66667 14.4392C1.22222 12.9976 0.499998 11.0753 0.499998 8.67247ZM23.7315 8.67247C23.7315 6.34974 24.4537 4.46752 25.8981 3.02583C27.3426 1.58413 29.2284 0.863284 31.5556 0.863284C33.8025 0.863285 35.6883 1.66422 37.213 3.26611C38.7377 4.94809 39.5 7.31087 39.5 10.3544C39.5 13.398 38.4969 17.0824 36.4907 21.4074C34.4043 25.7325 31.3148 30.2178 27.2222 34.8633L24.4537 32.4605C27.1821 29.2567 29.0679 26.3332 30.1111 23.6901C31.1543 21.1271 31.7562 18.7643 31.9167 16.6018L31.5556 16.6018C29.2284 16.6018 27.3426 15.8809 25.8981 14.4393C24.4537 12.9976 23.7315 11.0753 23.7315 8.67247Z" fill="#F56210"/>
</svg>
