<svg width="25" height="24" viewBox="0 0 25 24" fill="none" xmlns="http://www.w3.org/2000/svg">
<path d="M17.0559 12.906L16.6009 13.359C16.6009 13.359 15.5179 14.435 12.5629 11.497C9.60788 8.55898 10.6909 7.48298 10.6909 7.48298L10.9769 7.19698C11.6839 6.49498 11.7509 5.36698 11.1339 4.54298L9.87388 2.85998C9.10988 1.83998 7.63488 1.70498 6.75988 2.57498L5.18988 4.13498C4.75688 4.56698 4.46688 5.12498 4.50188 5.74498C4.59188 7.33198 5.30988 10.745 9.31388 14.727C13.5609 18.949 17.5459 19.117 19.1749 18.965C19.6909 18.917 20.1389 18.655 20.4999 18.295L21.9199 16.883C22.8799 15.93 22.6099 14.295 21.3819 13.628L19.4719 12.589C18.6659 12.152 17.6859 12.28 17.0559 12.906Z" fill="#2A3241"/>
</svg>
