<svg width="96" height="20" viewBox="0 0 96 20" fill="none" xmlns="http://www.w3.org/2000/svg">
<path d="M9.52447 2.32681C9.67415 1.86615 10.3259 1.86615 10.4755 2.32681L12.0206 7.08213C12.0876 7.28814 12.2795 7.42762 12.4962 7.42762H17.4962C17.9806 7.42762 18.1819 8.04743 17.7901 8.33213L13.745 11.2711C13.5697 11.3984 13.4964 11.6241 13.5633 11.8301L15.1084 16.5854C15.2581 17.0461 14.7309 17.4291 14.339 17.1444L10.2939 14.2055C10.1186 14.0782 9.88135 14.0782 9.70611 14.2055L5.66099 17.1444C5.26913 17.4291 4.74189 17.0461 4.89157 16.5854L6.43667 11.8301C6.5036 11.6241 6.43027 11.3984 6.25503 11.2711L2.20991 8.33213C1.81805 8.04743 2.01944 7.42762 2.5038 7.42762H7.50385C7.72046 7.42762 7.91244 7.28814 7.97937 7.08213L9.52447 2.32681Z" fill="#FFBD12"/>
<path d="M28.5245 2.32681C28.6741 1.86615 29.3259 1.86615 29.4755 2.32681L31.0206 7.08213C31.0876 7.28814 31.2795 7.42762 31.4962 7.42762H36.4962C36.9806 7.42762 37.1819 8.04743 36.7901 8.33213L32.745 11.2711C32.5697 11.3984 32.4964 11.6241 32.5633 11.8301L34.1084 16.5854C34.2581 17.0461 33.7309 17.4291 33.339 17.1444L29.2939 14.2055C29.1186 14.0782 28.8814 14.0782 28.7061 14.2055L24.661 17.1444C24.2691 17.4291 23.7419 17.0461 23.8916 16.5854L25.4367 11.8301C25.5036 11.6241 25.4303 11.3984 25.255 11.2711L21.2099 8.33213C20.8181 8.04743 21.0194 7.42762 21.5038 7.42762H26.5038C26.7205 7.42762 26.9124 7.28814 26.9794 7.08213L28.5245 2.32681Z" fill="#FFBD12"/>
<path d="M47.5245 2.32681C47.6741 1.86615 48.3259 1.86615 48.4755 2.32681L50.0206 7.08213C50.0876 7.28814 50.2795 7.42762 50.4962 7.42762H55.4962C55.9806 7.42762 56.1819 8.04743 55.7901 8.33213L51.745 11.2711C51.5697 11.3984 51.4964 11.6241 51.5633 11.8301L53.1084 16.5854C53.2581 17.0461 52.7309 17.4291 52.339 17.1444L48.2939 14.2055C48.1186 14.0782 47.8814 14.0782 47.7061 14.2055L43.661 17.1444C43.2691 17.4291 42.7419 17.0461 42.8916 16.5854L44.4367 11.8301C44.5036 11.6241 44.4303 11.3984 44.255 11.2711L40.2099 8.33213C39.8181 8.04743 40.0194 7.42762 40.5038 7.42762H45.5038C45.7205 7.42762 45.9124 7.28814 45.9794 7.08213L47.5245 2.32681Z" fill="#FFBD12"/>
<path d="M66.5245 2.32681C66.6741 1.86615 67.3259 1.86615 67.4755 2.32681L69.0206 7.08213C69.0876 7.28814 69.2795 7.42762 69.4962 7.42762H74.4962C74.9806 7.42762 75.1819 8.04743 74.7901 8.33213L70.745 11.2711C70.5697 11.3984 70.4964 11.6241 70.5633 11.8301L72.1084 16.5854C72.2581 17.0461 71.7309 17.4291 71.339 17.1444L67.2939 14.2055C67.1186 14.0782 66.8814 14.0782 66.7061 14.2055L62.661 17.1444C62.2691 17.4291 61.7419 17.0461 61.8916 16.5854L63.4367 11.8301C63.5036 11.6241 63.4303 11.3984 63.255 11.2711L59.2099 8.33213C58.8181 8.04743 59.0194 7.42762 59.5038 7.42762H64.5038C64.7205 7.42762 64.9124 7.28814 64.9794 7.08213L66.5245 2.32681Z" fill="#FFBD12"/>
<path d="M85.5245 2.32681C85.6741 1.86615 86.3259 1.86615 86.4755 2.32681L88.0206 7.08213C88.0876 7.28814 88.2795 7.42762 88.4962 7.42762H93.4962C93.9806 7.42762 94.1819 8.04743 93.7901 8.33213L89.745 11.2711C89.5697 11.3984 89.4964 11.6241 89.5633 11.8301L91.1084 16.5854C91.2581 17.0461 90.7309 17.4291 90.339 17.1444L86.2939 14.2055C86.1186 14.0782 85.8814 14.0782 85.7061 14.2055L81.661 17.1444C81.2691 17.4291 80.7419 17.0461 80.8916 16.5854L82.4367 11.8301C82.5036 11.6241 82.4303 11.3984 82.255 11.2711L78.2099 8.33213C77.8181 8.04743 78.0194 7.42762 78.5038 7.42762H83.5038C83.7205 7.42762 83.9124 7.28814 83.9794 7.08213L85.5245 2.32681Z" fill="#FFBD12"/>
</svg>
