<svg width="20" height="20" viewBox="0 0 20 20" fill="none" xmlns="http://www.w3.org/2000/svg">
<path d="M17.3194 1.69016L17.319 1.69033L2.23076 7.14708C1.63383 7.36315 1.56072 8.17802 2.11093 8.49677L6.39346 10.9761L10.2583 7.11125L10.2682 7.10139L10.2682 7.10147C10.6144 6.7671 11.0781 6.58209 11.5594 6.58627C12.0407 6.59045 12.5011 6.7835 12.8414 7.12383C13.1818 7.46417 13.3748 7.92456 13.379 8.40585C13.3832 8.88714 13.1981 9.35081 12.8638 9.69701L12.8541 9.70704L12.854 9.70696L8.98924 13.5717L11.4696 17.8544L11.4698 17.8548C11.7869 18.4029 12.6014 18.3319 12.8181 17.7347L17.3194 1.69016ZM17.3194 1.69016C17.9139 1.47477 18.4911 2.05113 18.2759 2.64639L12.8182 17.7343L17.3194 1.69016Z" stroke="white" stroke-width="1.605"/>
</svg>
