<svg width="19" height="18" viewBox="0 0 19 18" fill="none" xmlns="http://www.w3.org/2000/svg">
<path d="M12.6427 12.391L12.1141 11.859C12.6427 12.391 12.642 12.3917 12.6412 12.3924L12.6398 12.3939L12.6367 12.3969L12.6302 12.4031L12.6156 12.4168C12.605 12.4263 12.593 12.4368 12.5794 12.4481C12.5523 12.4706 12.5189 12.496 12.4789 12.5228C12.3988 12.5764 12.2931 12.6347 12.1603 12.6841C11.8894 12.7849 11.5322 12.839 11.0894 12.771C10.2226 12.638 9.07428 12.0471 7.54727 10.5288C6.0208 9.01115 5.42491 7.86835 5.29079 7.00312C5.22221 6.56067 5.27704 6.20338 5.37927 5.93234C5.42937 5.79951 5.48839 5.6939 5.54255 5.61403C5.56957 5.57419 5.59527 5.54089 5.61796 5.51385C5.6293 5.50032 5.6399 5.48834 5.64954 5.47788L5.66328 5.4633L5.66957 5.45684L5.67257 5.45382L5.67373 5.45265L5.67402 5.45236L5.95973 5.16665L5.96162 5.16477C6.39019 4.73923 6.4507 4.03204 6.04671 3.49251L6.04668 3.49247L4.78678 1.8096C4.78675 1.80956 4.78671 1.80951 4.78668 1.80947C4.27876 1.13151 3.33375 1.07799 2.80187 1.60683L2.8017 1.607L1.23278 3.16592C1.23262 3.16609 1.23245 3.16625 1.23229 3.16641L12.6427 12.391ZM12.6427 12.391L12.6432 12.3905M12.6427 12.391L12.6432 12.3905M12.6432 12.3905L13.0977 11.938C13.0978 11.9379 13.0979 11.9378 13.098 11.9377C13.4821 11.5563 14.0987 11.4618 14.6271 11.748C14.6272 11.7481 14.6274 11.7482 14.6276 11.7483L16.5367 12.7868L16.5371 12.787C17.3558 13.2317 17.4826 14.277 16.9047 14.8507L16.9042 14.8512L15.4842 16.2632L15.4835 16.2639C15.2096 16.537 14.9156 16.6906 14.6186 16.7182L14.6184 16.7182M12.6432 12.3905L14.6184 16.7182M14.6184 16.7182C13.169 16.8535 9.41753 16.7329 5.35583 12.6951M14.6184 16.7182L5.35583 12.6951M5.35583 12.6951C1.48531 8.8458 0.843614 5.60811 0.763871 4.20271L5.35583 12.6951Z" stroke="white" stroke-width="1.5"/>
</svg>
