<svg width="42" height="42" viewBox="0 0 42 42" fill="none" xmlns="http://www.w3.org/2000/svg">
<rect x="0.012207" y="0.5" width="41" height="41" rx="20.5" fill="#00A828"/>
<path d="M27.0062 13.3925C28.8206 14.9409 30.0217 17.0869 30.3929 19.443C30.764 21.7992 30.2807 24.2105 29.0303 26.2416C27.7798 28.2728 25.8445 29.7901 23.5736 30.5198C21.3027 31.2494 18.8458 31.1433 16.6462 30.2205L16.4232 30.1225L11.6642 30.9715L11.5542 30.9825C11.5176 30.9846 11.4809 30.9846 11.4442 30.9825L11.3422 30.9695L11.2342 30.9455L11.1292 30.9085L11.0302 30.8615L10.9372 30.8035L10.9232 30.7925L10.9112 30.7855L10.8252 30.7125L10.7482 30.6325L10.6812 30.5445L10.6252 30.4505L10.5912 30.3805L10.5512 30.2725L10.5232 30.1445L10.5112 30.0425C10.5086 30.0009 10.5086 29.9592 10.5112 29.9175L10.5232 29.8175L10.5472 29.7075L10.5922 29.5855L12.0252 26.2815L12.0162 26.2675C10.814 24.3267 10.3121 22.0329 10.5938 19.7673C10.8756 17.5017 11.9242 15.4008 13.5652 13.8135L13.7802 13.6105C15.5803 11.97 17.9171 11.0428 20.3522 11.0028C22.7874 10.9629 25.1534 11.8119 27.0062 13.3925ZM18.0092 16.4835C17.6114 16.4835 17.2299 16.6416 16.9486 16.9229C16.6673 17.2042 16.5092 17.5857 16.5092 17.9835V18.9835C16.5092 20.5748 17.1414 22.101 18.2666 23.2262C19.3918 24.3514 20.9179 24.9835 22.5092 24.9835H23.5092C23.9071 24.9835 24.2886 24.8255 24.5699 24.5442C24.8512 24.2629 25.0092 23.8814 25.0092 23.4835C25.0092 23.0857 24.8512 22.7042 24.5699 22.4229C24.2886 22.1416 23.9071 21.9835 23.5092 21.9835H22.5092L22.3652 21.9905C22.1364 22.0125 21.9156 22.0868 21.72 22.2076C21.5244 22.3285 21.3593 22.4927 21.2372 22.6875L21.1952 22.7615L21.1732 22.7545C20.612 22.555 20.1022 22.2329 19.681 21.8117C19.2598 21.3905 18.9378 20.8808 18.7382 20.3195L18.7302 20.2965L18.8052 20.2555C19.0208 20.1206 19.1985 19.933 19.3216 19.7105C19.4448 19.488 19.5093 19.2379 19.5092 18.9835V17.9835C19.5092 17.5857 19.3512 17.2042 19.0699 16.9229C18.7886 16.6416 18.4071 16.4835 18.0092 16.4835Z" fill="white"/>
</svg>
